<?xml version="1.0" encoding="utf-8"?>
<!-- Generator: Adobe Illustrator 16.0.0, SVG Export Plug-In . SVG Version: 6.00 Build 0)  -->
<!DOCTYPE svg PUBLIC "-//W3C//DTD SVG 1.1//EN" "http://www.w3.org/Graphics/SVG/1.1/DTD/svg11.dtd">
<svg version="1.1" id="Layer_1" xmlns="http://www.w3.org/2000/svg" xmlns:xlink="http://www.w3.org/1999/xlink" x="0px" y="0px"
	 width="49px" height="49px" viewBox="0 0 49 49" enable-background="new 0 0 49 49" xml:space="preserve">
<path fill-rule="evenodd" clip-rule="evenodd" fill="#5BC6CF" d="M31.333,32.828c-6.709,4.581-15.254,2.089-19.168-3.709
	c-3.792-5.617-2.969-13.136,2.037-17.871c4.834-4.574,12.511-4.969,17.757-0.906c3.055,2.366,4.89,5.46,5.372,9.299
	c0.483,3.841-0.588,7.281-2.96,10.423c0.167,0.131,0.324,0.228,0.451,0.355c1.926,1.941,3.847,3.887,5.772,5.829
	c0.535,0.54,0.855,1.158,0.726,1.941c-0.132,0.806-0.592,1.365-1.358,1.616c-0.768,0.25-1.5,0.123-2.093-0.463
	c-1.172-1.157-2.332-2.326-3.497-3.491c-0.943-0.944-1.888-1.889-2.832-2.831C31.473,32.953,31.4,32.89,31.333,32.828z
	 M23.622,31.708c5.723-0.007,10.377-4.657,10.379-10.37c0.002-5.733-4.658-10.396-10.39-10.394
	c-5.728,0.002-10.401,4.687-10.377,10.403C13.258,27.08,17.904,31.714,23.622,31.708z"/>
<path fill-rule="evenodd" clip-rule="evenodd" fill="#5BC6CF" d="M27.985,21.576c0-1.68,0-3.358,0-5.038
	c0-0.442,0.036-0.477,0.481-0.478c0.613-0.001,1.227,0,1.841,0.001c0.436,0,0.483,0.045,0.483,0.478c0,3.003,0,6.005,0,9.009
	c0,0.387-0.008,0.776,0.003,1.162c0.008,0.282-0.091,0.413-0.393,0.405c-0.678-0.014-1.356-0.016-2.034,0
	c-0.305,0.006-0.387-0.12-0.385-0.406c0.009-1.711,0.004-3.422,0.004-5.133C27.986,21.576,27.986,21.576,27.985,21.576z"/>
<path fill-rule="evenodd" clip-rule="evenodd" fill="#5BC6CF" d="M20.212,22.994c-0.001-1.215-0.001-2.431,0-3.646
	c0-0.426,0.04-0.465,0.457-0.464c0.656,0,1.312,0.008,1.968-0.003c0.279-0.006,0.386,0.105,0.385,0.38
	c-0.004,2.496-0.003,4.991,0.001,7.487c0,0.257-0.101,0.369-0.365,0.366c-0.678-0.01-1.355-0.016-2.033,0.001
	c-0.31,0.009-0.418-0.102-0.416-0.41C20.219,25.469,20.212,24.231,20.212,22.994z"/>
<path fill-rule="evenodd" clip-rule="evenodd" fill="#5BC6CF" d="M24.113,24.226c0-0.829,0.008-1.657-0.004-2.486
	c-0.004-0.31,0.118-0.42,0.422-0.414c0.656,0.015,1.313,0.015,1.97,0.002c0.301-0.007,0.43,0.102,0.428,0.41
	c-0.006,1.657-0.004,3.315,0,4.973c0.001,0.279-0.092,0.413-0.395,0.405c-0.688-0.015-1.378-0.012-2.066-0.001
	c-0.27,0.003-0.358-0.112-0.356-0.369c0.008-0.84,0.003-1.68,0.003-2.52C24.114,24.226,24.113,24.226,24.113,24.226z"/>
<path fill-rule="evenodd" clip-rule="evenodd" fill="#5BC6CF" d="M16.433,24.877c0-0.614,0.006-1.228-0.003-1.841
	c-0.004-0.245,0.091-0.354,0.34-0.352c0.721,0.007,1.442,0.007,2.163,0.002c0.237-0.002,0.324,0.11,0.324,0.336
	c-0.003,1.259-0.002,2.519,0,3.777c0,0.216-0.096,0.313-0.313,0.312c-0.732-0.004-1.463-0.006-2.196,0.002
	c-0.239,0.002-0.321-0.102-0.318-0.332C16.438,26.146,16.433,25.512,16.433,24.877z"/>
</svg>
