<?xml version="1.0" encoding="utf-8"?>
<!-- Generator: Adobe Illustrator 16.0.0, SVG Export Plug-In . SVG Version: 6.00 Build 0)  -->
<!DOCTYPE svg PUBLIC "-//W3C//DTD SVG 1.1//EN" "http://www.w3.org/Graphics/SVG/1.1/DTD/svg11.dtd">
<svg version="1.1" id="Layer_1" xmlns="http://www.w3.org/2000/svg" xmlns:xlink="http://www.w3.org/1999/xlink" x="0px" y="0px"
	 width="32px" height="32px" viewBox="0 0 32 32" enable-background="new 0 0 32 32" xml:space="preserve">
<g>
	<path fill-rule="evenodd" clip-rule="evenodd" fill="#141E3B" d="M18.341,17.32c0,3.281,0,6.521,0,9.777c-1.356,0-2.698,0-4.066,0
		c0-3.254,0-6.5,0-9.771c-0.65,0-1.276,0-1.92,0c0-1.163,0-2.302,0-3.465c0.638,0,1.263,0,1.919,0c0-0.11-0.001-0.197,0-0.283
		c0.008-0.809-0.028-1.621,0.034-2.424c0.103-1.311,0.622-2.412,1.809-3.105c0.616-0.36,1.296-0.51,1.998-0.523
		c1.056-0.019,2.111-0.002,3.167,0c0.029,0,0.058,0.007,0.101,0.013c0,1.109,0,2.213,0,3.347c-0.145,0-0.292,0-0.438,0
		c-0.569,0-1.138-0.002-1.707,0.001c-0.514,0.003-0.853,0.267-0.875,0.769c-0.034,0.723-0.009,1.449-0.009,2.201
		c1.03,0,2.051,0,3.095,0c-0.119,1.167-0.236,2.303-0.355,3.463C20.174,17.32,19.272,17.32,18.341,17.32z"/>
</g>
</svg>
