<?xml version="1.0" encoding="utf-8"?>
<!-- Generator: Adobe Illustrator 16.0.0, SVG Export Plug-In . SVG Version: 6.00 Build 0)  -->
<!DOCTYPE svg PUBLIC "-//W3C//DTD SVG 1.1//EN" "http://www.w3.org/Graphics/SVG/1.1/DTD/svg11.dtd">
<svg version="1.1" id="Layer_1" xmlns="http://www.w3.org/2000/svg" xmlns:xlink="http://www.w3.org/1999/xlink" x="0px" y="0px"
	 width="96.138px" height="64.348px" viewBox="0 0 96.138 64.348" enable-background="new 0 0 96.138 64.348" xml:space="preserve">
<path fill-rule="evenodd" clip-rule="evenodd" fill="#5EC7D1" d="M17.476,35.036v-5.964l8.178-4.722
	c0.477-0.275,0.641-0.89,0.366-1.366s-0.89-0.642-1.366-0.367l-7.089,4.094v-7.433l7.857-4.536c0.477-0.275,0.641-0.89,0.366-1.366
	c-0.275-0.477-0.89-0.642-1.367-0.366l-6.857,3.959V11.64c0-0.551-0.45-1.001-1-1.001c-0.55,0-1,0.45-1,1.001v4.854
	c0.004,0.365-0.325,0.389-0.474,0.304L8.529,13.01c-0.476-0.275-1.091-0.11-1.366,0.366c-0.275,0.477-0.11,1.091,0.366,1.366
	l7.432,4.29c0.349,0.179,0.524,0.423,0.515,0.767v0.687v3.833l-7.178-4.145c-0.477-0.275-1.091-0.11-1.366,0.366
	s-0.11,1.091,0.366,1.366l8.178,4.722v1.289v2.311v1.344l-7.187-4.149c-0.477-0.275-1.091-0.11-1.366,0.366
	c-0.275,0.477-0.11,1.092,0.366,1.366l8.187,4.727L17.476,35.036z M16.491,5.159l6.002,3.465l5.383,3.108
	c0.366,0.251,0.609,0.669,0.618,1.144h0v6.144v3.465v4.433l0,0v0.972h0c-0.009,0.475-0.251,0.893-0.618,1.143l-5.384,3.108
	l-5.017,2.896V45.3c0,0.55-0.45,1-1,1s-1-0.449-1-1v-6.076l-4.985-2.879l-5.384-3.108h0L4.488,32.88l0.618,0.356
	c-0.366-0.25-0.609-0.668-0.618-1.143h0V25.95v-0.001v-6.93v-6.144h0c0.009-0.475,0.251-0.893,0.618-1.144l5.384-3.108L16.491,5.159
	l0.607,0.351c-0.184-0.088-0.39-0.137-0.607-0.137c-0.217,0-0.422,0.049-0.607,0.137L16.491,5.159z"/>
<path fill="#2E3957" d="M94.458,25.147h-3.531c-0.227,0-0.408,0.061-0.543,0.171c-0.136,0.115-0.227,0.282-0.272,0.493
	l-3.501,14.126l-3.501-14.126c-0.045-0.211-0.136-0.378-0.271-0.493c-0.136-0.11-0.317-0.171-0.543-0.171h-2.928
	c-0.271,0-0.468,0.075-0.579,0.216c-0.11,0.146-0.13,0.357-0.055,0.629l0.956,3.477l-2.797,10.469l-3.501-14.126
	c-0.045-0.211-0.136-0.378-0.272-0.493c-0.136-0.11-0.317-0.171-0.543-0.171h-3.531c-0.272,0-0.468,0.075-0.579,0.216
	c-0.111,0.146-0.131,0.357-0.055,0.629l5.402,19.649c0.061,0.228,0.167,0.388,0.312,0.488c0.141,0.101,0.322,0.146,0.533,0.146
	h3.864c0.211,0,0.393-0.045,0.539-0.146c0.141-0.101,0.247-0.261,0.307-0.488l2.385-8.662l2.384,8.662
	c0.06,0.228,0.166,0.388,0.312,0.488c0.141,0.101,0.322,0.146,0.533,0.146h3.863c0.211,0,0.393-0.045,0.538-0.146
	c0.141-0.101,0.247-0.261,0.307-0.488l5.403-19.649c0.076-0.271,0.056-0.482-0.055-0.629C94.927,25.223,94.73,25.147,94.458,25.147"
	/>
<path fill="#2E3957" d="M57.514,46.275c1.223-0.004,2.379-0.186,3.476-0.548c1.092-0.362,2.093-0.875,2.993-1.544
	c0.896-0.664,1.666-1.449,2.299-2.365c0.634-0.91,1.102-1.921,1.403-3.027c0.056-0.247,0.025-0.438-0.096-0.574
	c-0.121-0.141-0.307-0.211-0.568-0.211H63.46c-0.206,0-0.377,0.051-0.513,0.156c-0.131,0.101-0.242,0.251-0.332,0.447
	c-0.287,0.614-0.684,1.147-1.187,1.585c-0.508,0.442-1.092,0.779-1.761,1.017c-0.664,0.236-1.383,0.356-2.153,0.356
	c-1.252-0.01-2.339-0.271-3.26-0.79s-1.63-1.247-2.133-2.183c-0.503-0.941-0.76-2.038-0.765-3.306
	c0.005-1.268,0.262-2.364,0.765-3.305c0.503-0.936,1.212-1.665,2.133-2.184s2.007-0.78,3.26-0.79c0.77,0,1.489,0.121,2.153,0.357
	c0.669,0.236,1.253,0.573,1.761,1.017c0.503,0.438,0.9,0.971,1.187,1.584c0.09,0.196,0.201,0.348,0.332,0.448
	c0.136,0.105,0.307,0.156,0.513,0.156h3.562c0.262-0.006,0.448-0.081,0.568-0.231c0.121-0.151,0.151-0.353,0.096-0.614
	c-0.317-1.106-0.795-2.112-1.434-3.019c-0.639-0.905-1.409-1.69-2.304-2.35c-0.9-0.653-1.892-1.161-2.983-1.519
	c-1.086-0.353-2.239-0.533-3.451-0.538c-1.278,0.005-2.475,0.186-3.587,0.543c-1.117,0.362-2.128,0.87-3.034,1.534
	c-0.905,0.659-1.68,1.444-2.334,2.354c-0.649,0.91-1.152,1.917-1.499,3.023c-0.352,1.107-0.528,2.283-0.533,3.531
	c0.005,1.248,0.181,2.425,0.533,3.532c0.347,1.106,0.85,2.112,1.499,3.022c0.654,0.911,1.429,1.696,2.334,2.354
	c0.906,0.664,1.917,1.173,3.034,1.534C55.039,46.09,56.236,46.271,57.514,46.275"/>
<path fill="#2E3957" d="M36.868,46.275c0.754,0,1.484-0.085,2.188-0.256c0.709-0.171,1.369-0.433,1.977-0.784
	c0.614-0.353,1.147-0.796,1.605-1.334c0.463-0.533,0.82-1.167,1.082-1.896c0.256-0.729,0.387-1.56,0.392-2.49V25.479
	c0-0.241-0.065-0.428-0.196-0.559s-0.317-0.196-0.559-0.196h-3.32c-0.241,0-0.427,0.065-0.558,0.196s-0.196,0.317-0.196,0.559
	v14.035c0.005,0.654-0.191,1.157-0.583,1.515c-0.393,0.352-1.006,0.533-1.831,0.538c-0.709,0.005-1.253-0.141-1.64-0.442
	c-0.387-0.297-0.624-0.785-0.714-1.459c-0.045-0.241-0.131-0.428-0.256-0.559c-0.126-0.131-0.302-0.196-0.528-0.196h-3.351
	c-0.241,0-0.428,0.065-0.553,0.202c-0.126,0.13-0.186,0.326-0.171,0.583c0.09,1.167,0.347,2.168,0.765,3.003
	c0.422,0.83,0.966,1.515,1.63,2.043c0.669,0.528,1.414,0.915,2.238,1.162C35.107,46.155,35.973,46.275,36.868,46.275"/>
<path fill="#969999" d="M79.612,57.279c0.143-0.214,0.302-0.376,0.478-0.485c0.175-0.11,0.353-0.164,0.534-0.164
	c0.118,0,0.221,0.022,0.31,0.069c0.088,0.045,0.161,0.113,0.216,0.202c0.056,0.089,0.093,0.198,0.113,0.327
	c0.02,0.13,0.02,0.278,0,0.443l-0.207,1.754h-0.484l0.207-1.754c0.027-0.218,0.015-0.379-0.038-0.484s-0.15-0.158-0.294-0.158
	c-0.082,0-0.166,0.022-0.253,0.066c-0.086,0.045-0.17,0.107-0.251,0.189c-0.081,0.081-0.157,0.18-0.228,0.296
	c-0.072,0.116-0.135,0.246-0.187,0.39l-0.177,1.455H78.87l0.484-4.007h0.484L79.612,57.279z M77.159,58.906c0-0.012,0-0.025,0-0.043
	s0.002-0.042,0.005-0.074c0.002-0.032,0.007-0.075,0.014-0.128c0.006-0.053,0.014-0.121,0.025-0.206l0.169-1.379h-0.308
	c-0.025,0-0.045-0.01-0.061-0.026c-0.015-0.018-0.021-0.044-0.018-0.08l0.022-0.193l0.424-0.057l0.207-0.852
	c0.009-0.027,0.024-0.05,0.043-0.067s0.042-0.025,0.072-0.025h0.253l-0.117,0.949h0.723l-0.041,0.352h-0.726l-0.166,1.354
	c-0.009,0.073-0.016,0.134-0.021,0.179s-0.009,0.082-0.012,0.109c-0.003,0.026-0.005,0.046-0.006,0.057s-0.002,0.019-0.002,0.024
	c0,0.093,0.022,0.161,0.065,0.205s0.102,0.066,0.174,0.066c0.049,0,0.091-0.007,0.127-0.021c0.035-0.014,0.066-0.027,0.093-0.044
	s0.05-0.032,0.068-0.046c0.018-0.013,0.033-0.02,0.046-0.02c0.017,0,0.029,0.004,0.037,0.011s0.016,0.019,0.023,0.035l0.103,0.231
	c-0.089,0.078-0.189,0.139-0.303,0.183c-0.113,0.045-0.228,0.067-0.342,0.067c-0.176,0-0.313-0.048-0.414-0.144
	C77.215,59.229,77.163,59.089,77.159,58.906z M76.827,56.671l-1.156,2.755h-0.367c-0.043,0-0.071-0.031-0.082-0.093l-0.335-1.868
	c-0.003-0.031-0.006-0.061-0.009-0.089c-0.002-0.028-0.006-0.058-0.01-0.088c-0.02,0.06-0.042,0.119-0.065,0.179l-0.794,1.866
	c-0.025,0.062-0.063,0.093-0.112,0.093h-0.354l-0.484-2.755h0.361c0.037,0,0.065,0.009,0.087,0.026
	c0.022,0.019,0.036,0.043,0.043,0.074l0.253,1.772c0.003,0.063,0.007,0.126,0.011,0.186s0.006,0.118,0.008,0.177
	c0.02-0.059,0.042-0.117,0.065-0.177s0.048-0.122,0.073-0.186l0.753-1.784c0.009-0.026,0.026-0.049,0.052-0.067
	s0.053-0.027,0.084-0.027h0.201c0.035,0,0.062,0.009,0.082,0.027s0.032,0.041,0.036,0.067l0.31,1.784
	c0.009,0.063,0.017,0.125,0.024,0.184s0.014,0.118,0.019,0.179c0.017-0.059,0.035-0.117,0.054-0.177s0.039-0.122,0.061-0.186
	l0.699-1.772c0.009-0.029,0.027-0.054,0.054-0.072c0.026-0.02,0.055-0.028,0.085-0.028H76.827z M71.211,59.464
	c-0.15,0-0.288-0.026-0.414-0.078c-0.125-0.052-0.233-0.126-0.323-0.224c-0.091-0.099-0.161-0.218-0.212-0.359
	c-0.05-0.142-0.076-0.303-0.076-0.484c0-0.231,0.037-0.45,0.109-0.655c0.073-0.205,0.172-0.384,0.299-0.537s0.276-0.274,0.448-0.362
	c0.171-0.09,0.355-0.134,0.553-0.134c0.15,0,0.288,0.025,0.414,0.077c0.125,0.051,0.232,0.127,0.323,0.225s0.162,0.217,0.212,0.359
	c0.05,0.141,0.076,0.301,0.076,0.481c0,0.229-0.036,0.447-0.109,0.652c-0.072,0.205-0.171,0.385-0.297,0.538
	c-0.126,0.154-0.276,0.275-0.448,0.365C71.594,59.418,71.409,59.464,71.211,59.464z M71.257,59.086c0.132,0,0.253-0.037,0.361-0.109
	s0.2-0.169,0.277-0.29c0.077-0.12,0.136-0.259,0.178-0.417c0.042-0.157,0.063-0.322,0.063-0.495c0-0.254-0.05-0.445-0.15-0.573
	c-0.101-0.127-0.246-0.191-0.434-0.191c-0.135,0-0.255,0.036-0.363,0.107s-0.2,0.168-0.276,0.287
	c-0.077,0.12-0.135,0.259-0.177,0.417c-0.042,0.157-0.063,0.322-0.063,0.495c0,0.253,0.05,0.444,0.15,0.574
	C70.922,59.021,71.067,59.086,71.257,59.086z M69.016,57.438c0.073-0.154,0.151-0.289,0.236-0.401
	c0.084-0.113,0.172-0.202,0.265-0.267c0.093-0.064,0.188-0.104,0.286-0.117s0.198,0.002,0.299,0.045l-0.087,0.466
	c-0.235-0.095-0.443-0.061-0.624,0.103c-0.18,0.163-0.327,0.458-0.439,0.884l-0.152,1.276h-0.473l0.332-2.758h0.239
	c0.111,0,0.166,0.054,0.166,0.163L69.016,57.438z M66.77,57.56h1.118l-0.185,1.487c-0.098,0.071-0.198,0.133-0.303,0.186
	s-0.214,0.096-0.329,0.131c-0.115,0.036-0.238,0.063-0.366,0.08c-0.129,0.017-0.268,0.025-0.416,0.025
	c-0.236,0-0.45-0.043-0.642-0.127c-0.192-0.084-0.356-0.202-0.492-0.354c-0.136-0.151-0.24-0.332-0.313-0.542
	c-0.074-0.21-0.111-0.44-0.111-0.69c0-0.336,0.053-0.644,0.157-0.922c0.104-0.277,0.249-0.518,0.433-0.717
	c0.184-0.201,0.402-0.356,0.656-0.467c0.252-0.11,0.528-0.166,0.827-0.166c0.152,0,0.291,0.013,0.413,0.039
	c0.123,0.024,0.234,0.061,0.334,0.105s0.191,0.099,0.272,0.16c0.081,0.063,0.154,0.129,0.221,0.201l-0.163,0.212
	c-0.027,0.038-0.059,0.063-0.096,0.071s-0.076,0.001-0.116-0.024c-0.04-0.024-0.083-0.055-0.132-0.092
	c-0.048-0.037-0.107-0.072-0.176-0.106c-0.069-0.033-0.151-0.063-0.247-0.087c-0.097-0.024-0.212-0.036-0.349-0.036
	c-0.223,0-0.427,0.043-0.613,0.128c-0.186,0.086-0.345,0.207-0.479,0.364c-0.133,0.158-0.236,0.349-0.31,0.571
	c-0.073,0.224-0.11,0.472-0.11,0.745c0,0.205,0.027,0.389,0.081,0.552c0.053,0.163,0.128,0.303,0.227,0.417
	c0.098,0.114,0.215,0.201,0.354,0.262c0.138,0.061,0.291,0.092,0.459,0.092c0.095,0,0.183-0.006,0.264-0.017
	s0.158-0.026,0.231-0.045c0.072-0.02,0.142-0.043,0.207-0.071c0.065-0.027,0.13-0.06,0.196-0.096l0.109-0.882h-0.544
	c-0.033,0-0.058-0.01-0.076-0.028c-0.018-0.02-0.025-0.042-0.021-0.069L66.77,57.56z M62.182,57.438
	c0.073-0.154,0.151-0.289,0.236-0.401c0.084-0.113,0.172-0.202,0.265-0.267c0.092-0.064,0.188-0.104,0.285-0.117
	c0.098-0.014,0.198,0.002,0.3,0.045l-0.087,0.466c-0.236-0.095-0.443-0.061-0.624,0.103c-0.181,0.163-0.328,0.458-0.44,0.884
	l-0.152,1.276h-0.474l0.332-2.758h0.239c0.111,0,0.166,0.054,0.166,0.163L62.182,57.438z M59.693,59.464
	c-0.15,0-0.289-0.026-0.414-0.078s-0.233-0.126-0.324-0.224c-0.09-0.099-0.162-0.218-0.212-0.359
	c-0.051-0.142-0.076-0.303-0.076-0.484c0-0.231,0.036-0.45,0.109-0.655c0.072-0.205,0.172-0.384,0.299-0.537
	c0.127-0.153,0.277-0.274,0.448-0.362c0.171-0.09,0.356-0.134,0.553-0.134c0.151,0,0.289,0.025,0.414,0.077
	c0.125,0.051,0.233,0.127,0.323,0.225c0.091,0.098,0.162,0.217,0.212,0.359c0.051,0.141,0.076,0.301,0.076,0.481
	c0,0.229-0.037,0.447-0.109,0.652c-0.073,0.205-0.171,0.385-0.297,0.538c-0.126,0.154-0.275,0.275-0.448,0.365
	S59.891,59.464,59.693,59.464z M59.739,59.086c0.132,0,0.253-0.037,0.361-0.109s0.201-0.169,0.277-0.29
	c0.077-0.12,0.136-0.259,0.178-0.417c0.042-0.157,0.063-0.322,0.063-0.495c0-0.254-0.05-0.445-0.151-0.573
	c-0.101-0.127-0.246-0.191-0.435-0.191c-0.134,0-0.254,0.036-0.362,0.107s-0.2,0.168-0.277,0.287
	c-0.076,0.12-0.135,0.259-0.176,0.417c-0.042,0.157-0.063,0.322-0.063,0.495c0,0.253,0.05,0.444,0.149,0.574
	C59.404,59.021,59.549,59.086,59.739,59.086z M56.829,55.944l-0.168,1.387h1.458l-0.055,0.413h-1.455l-0.207,1.682h-0.511
	l0.479-3.897h2.219l-0.051,0.416H56.829z M54.077,58.917c-0.092,0.096-0.183,0.177-0.272,0.245s-0.179,0.125-0.27,0.171
	c-0.092,0.045-0.188,0.078-0.289,0.099s-0.209,0.032-0.325,0.032c-0.158,0-0.299-0.026-0.424-0.079s-0.231-0.128-0.318-0.225
	c-0.087-0.098-0.154-0.214-0.201-0.353c-0.047-0.138-0.071-0.292-0.071-0.462c0-0.142,0.016-0.283,0.045-0.424
	c0.03-0.14,0.074-0.273,0.131-0.4c0.057-0.127,0.127-0.244,0.209-0.354c0.083-0.108,0.177-0.203,0.283-0.281
	c0.106-0.079,0.223-0.141,0.351-0.187c0.128-0.045,0.265-0.067,0.411-0.067c0.14,0,0.261,0.02,0.362,0.06s0.185,0.09,0.25,0.152
	c0.065,0.062,0.114,0.129,0.146,0.203c0.032,0.075,0.047,0.146,0.047,0.213c0,0.119-0.024,0.229-0.073,0.33
	c-0.049,0.101-0.139,0.191-0.269,0.271c-0.131,0.081-0.31,0.151-0.539,0.212c-0.229,0.06-0.522,0.107-0.881,0.144
	c0,0.021,0,0.039,0,0.059c-0.001,0.019-0.002,0.038-0.002,0.059c0,0.243,0.053,0.428,0.16,0.556
	c0.106,0.128,0.265,0.192,0.479,0.192c0.087,0,0.165-0.01,0.233-0.027c0.068-0.019,0.128-0.041,0.182-0.067
	c0.053-0.026,0.101-0.056,0.142-0.087c0.041-0.031,0.078-0.061,0.111-0.087s0.064-0.048,0.093-0.066
	c0.029-0.018,0.058-0.027,0.087-0.027c0.035,0,0.065,0.016,0.092,0.047L54.077,58.917z M53.31,56.98
	c-0.114,0-0.219,0.023-0.315,0.071c-0.096,0.047-0.181,0.111-0.256,0.193c-0.074,0.083-0.138,0.18-0.19,0.291
	c-0.052,0.111-0.093,0.232-0.122,0.361c0.279-0.035,0.503-0.075,0.672-0.119c0.168-0.044,0.298-0.093,0.389-0.145
	c0.091-0.051,0.15-0.106,0.18-0.167c0.029-0.06,0.043-0.122,0.043-0.188c0-0.032-0.007-0.066-0.022-0.103
	c-0.014-0.035-0.037-0.066-0.069-0.096s-0.073-0.054-0.124-0.072C53.444,56.989,53.383,56.98,53.31,56.98z M51.782,56.771
	l-0.019,0.16c-0.009,0.065-0.045,0.108-0.109,0.131l-0.345,0.06c0.034,0.095,0.052,0.198,0.052,0.313
	c0,0.091-0.01,0.173-0.031,0.245c-0.021,0.072-0.047,0.14-0.078,0.201S51.187,58,51.151,58.055c-0.037,0.055-0.07,0.108-0.101,0.161
	c-0.031,0.054-0.056,0.108-0.077,0.166s-0.032,0.12-0.032,0.187c0,0.05,0.009,0.096,0.026,0.141c0.018,0.044,0.04,0.087,0.065,0.13
	c0.026,0.043,0.055,0.086,0.087,0.13c0.031,0.044,0.061,0.09,0.086,0.139c0.026,0.049,0.048,0.102,0.065,0.158
	c0.018,0.058,0.025,0.12,0.025,0.189c-0.001,0.129-0.032,0.25-0.092,0.365s-0.145,0.218-0.255,0.308
	c-0.111,0.088-0.245,0.157-0.403,0.21c-0.158,0.052-0.335,0.078-0.533,0.078c-0.157,0-0.301-0.017-0.43-0.05
	c-0.13-0.032-0.24-0.079-0.332-0.139s-0.162-0.132-0.212-0.216c-0.049-0.085-0.075-0.178-0.075-0.279
	c0-0.115,0.025-0.218,0.074-0.307s0.115-0.166,0.199-0.23c0.083-0.064,0.18-0.117,0.291-0.158c0.11-0.042,0.228-0.073,0.353-0.093
	c0.124-0.021,0.251-0.03,0.381-0.029c0.131,0.001,0.259,0.011,0.384,0.029c-0.017-0.034-0.029-0.071-0.039-0.108
	s-0.016-0.077-0.016-0.12c0-0.057,0.009-0.114,0.026-0.174c0.017-0.061,0.045-0.129,0.085-0.204
	c-0.069,0.047-0.146,0.083-0.231,0.109s-0.182,0.04-0.291,0.04c-0.105,0-0.203-0.018-0.294-0.052s-0.172-0.085-0.241-0.152
	c-0.069-0.067-0.123-0.151-0.163-0.252s-0.06-0.218-0.06-0.352c0-0.131,0.025-0.26,0.072-0.386c0.048-0.126,0.118-0.238,0.21-0.337
	c0.093-0.099,0.207-0.178,0.343-0.237c0.136-0.061,0.293-0.09,0.471-0.09c0.098,0,0.191,0.012,0.28,0.035
	c0.089,0.023,0.169,0.059,0.24,0.106H51.782z M50.857,59.494c0-0.05-0.004-0.095-0.014-0.136c-0.009-0.041-0.021-0.079-0.035-0.115
	c-0.24-0.038-0.446-0.053-0.62-0.043c-0.174,0.011-0.317,0.038-0.431,0.081c-0.113,0.044-0.198,0.1-0.252,0.169
	c-0.055,0.068-0.082,0.143-0.082,0.223c0,0.131,0.055,0.23,0.165,0.3c0.109,0.068,0.265,0.103,0.466,0.103
	c0.12,0,0.229-0.016,0.328-0.048c0.099-0.031,0.183-0.073,0.253-0.126s0.124-0.114,0.163-0.186
	C50.838,59.646,50.857,59.571,50.857,59.494z M50.311,58.183c0.098,0,0.185-0.021,0.26-0.064c0.076-0.042,0.139-0.099,0.19-0.169
	c0.052-0.069,0.091-0.147,0.118-0.234c0.027-0.087,0.041-0.175,0.041-0.264c0-0.16-0.04-0.28-0.121-0.361
	c-0.081-0.082-0.192-0.123-0.333-0.123c-0.098,0-0.184,0.021-0.258,0.061c-0.075,0.039-0.137,0.093-0.188,0.16
	c-0.052,0.067-0.091,0.144-0.117,0.229c-0.026,0.085-0.04,0.174-0.04,0.266c0,0.164,0.04,0.288,0.119,0.373
	C50.059,58.141,50.169,58.183,50.311,58.183z M49.045,55.419l-0.492,4.007H48.3c-0.063,0-0.106-0.017-0.128-0.049
	c-0.021-0.033-0.032-0.072-0.032-0.12l0.051-0.579c-0.068,0.119-0.144,0.227-0.226,0.323s-0.167,0.179-0.256,0.248
	c-0.09,0.068-0.183,0.121-0.28,0.158s-0.196,0.057-0.295,0.057c-0.236,0-0.419-0.087-0.549-0.258
	c-0.131-0.171-0.196-0.42-0.196-0.746c0-0.148,0.015-0.297,0.046-0.446c0.031-0.148,0.076-0.291,0.133-0.427
	c0.057-0.136,0.126-0.263,0.207-0.38s0.17-0.218,0.27-0.303c0.1-0.086,0.208-0.152,0.323-0.201s0.236-0.073,0.363-0.073
	c0.136,0,0.26,0.025,0.372,0.079c0.111,0.055,0.206,0.13,0.284,0.228l0.188-1.518H49.045z M48.344,57.271
	c-0.069-0.098-0.152-0.167-0.249-0.206c-0.097-0.038-0.196-0.058-0.296-0.058c-0.143,0-0.272,0.042-0.386,0.127
	c-0.114,0.086-0.211,0.196-0.292,0.33c-0.081,0.136-0.144,0.287-0.187,0.454c-0.043,0.166-0.065,0.331-0.065,0.492
	c0,0.216,0.039,0.38,0.116,0.493s0.187,0.171,0.33,0.171c0.087,0,0.175-0.028,0.264-0.082c0.089-0.055,0.175-0.131,0.258-0.228
	c0.082-0.097,0.16-0.212,0.231-0.344c0.072-0.132,0.133-0.277,0.186-0.436L48.344,57.271z M45.964,58.917
	c-0.092,0.096-0.183,0.177-0.272,0.245s-0.179,0.125-0.271,0.171c-0.091,0.045-0.188,0.078-0.288,0.099s-0.209,0.032-0.326,0.032
	c-0.157,0-0.299-0.026-0.424-0.079s-0.231-0.128-0.318-0.225c-0.087-0.098-0.154-0.214-0.201-0.353
	c-0.047-0.138-0.071-0.292-0.071-0.462c0-0.142,0.016-0.283,0.045-0.424c0.03-0.14,0.073-0.273,0.13-0.4s0.127-0.244,0.209-0.354
	c0.083-0.108,0.177-0.203,0.283-0.281c0.106-0.079,0.223-0.141,0.351-0.187c0.128-0.045,0.265-0.067,0.412-0.067
	c0.14,0,0.26,0.02,0.361,0.06c0.102,0.04,0.185,0.09,0.25,0.152c0.065,0.062,0.114,0.129,0.146,0.203
	c0.032,0.075,0.047,0.146,0.047,0.213c0,0.119-0.024,0.229-0.073,0.33s-0.139,0.191-0.269,0.271c-0.13,0.081-0.31,0.151-0.539,0.212
	c-0.229,0.06-0.522,0.107-0.881,0.144c0,0.021,0,0.039-0.001,0.059c-0.001,0.019-0.002,0.038-0.002,0.059
	c0,0.243,0.054,0.428,0.16,0.556s0.266,0.192,0.479,0.192c0.087,0,0.165-0.01,0.233-0.027c0.068-0.019,0.128-0.041,0.182-0.067
	s0.101-0.056,0.142-0.087c0.041-0.031,0.078-0.061,0.111-0.087c0.033-0.026,0.064-0.048,0.093-0.066
	c0.029-0.018,0.058-0.027,0.087-0.027c0.035,0,0.065,0.016,0.093,0.047L45.964,58.917z M45.197,56.98
	c-0.114,0-0.219,0.023-0.315,0.071c-0.096,0.047-0.181,0.111-0.255,0.193c-0.075,0.083-0.138,0.18-0.19,0.291
	c-0.053,0.111-0.094,0.232-0.123,0.361c0.279-0.035,0.503-0.075,0.672-0.119s0.298-0.093,0.389-0.145
	c0.091-0.051,0.15-0.106,0.18-0.167c0.029-0.06,0.043-0.122,0.043-0.188c0-0.032-0.007-0.066-0.022-0.103
	c-0.014-0.035-0.037-0.066-0.069-0.096c-0.031-0.029-0.073-0.054-0.124-0.072C45.332,56.989,45.27,56.98,45.197,56.98z
	 M42.586,59.426l0.487-4.007h0.476l-0.487,4.007H42.586z M42.459,56.671l-1.156,2.755h-0.367c-0.043,0-0.071-0.031-0.082-0.093
	l-0.334-1.868c-0.003-0.031-0.006-0.061-0.009-0.089c-0.002-0.028-0.006-0.058-0.01-0.088c-0.02,0.06-0.042,0.119-0.065,0.179
	l-0.794,1.866c-0.025,0.062-0.063,0.093-0.111,0.093h-0.354l-0.484-2.755h0.362c0.036,0,0.065,0.009,0.087,0.026
	c0.022,0.019,0.036,0.043,0.043,0.074l0.253,1.772c0.004,0.063,0.007,0.126,0.011,0.186c0.003,0.06,0.006,0.118,0.008,0.177
	c0.02-0.059,0.042-0.117,0.065-0.177s0.048-0.122,0.073-0.186l0.753-1.784c0.009-0.026,0.026-0.049,0.052-0.067
	s0.054-0.027,0.084-0.027h0.201c0.035,0,0.062,0.009,0.082,0.027s0.032,0.041,0.035,0.067l0.31,1.784
	c0.009,0.063,0.017,0.125,0.025,0.184c0.007,0.059,0.013,0.118,0.019,0.179c0.016-0.059,0.034-0.117,0.053-0.177
	s0.039-0.122,0.061-0.186l0.699-1.772c0.009-0.029,0.027-0.054,0.054-0.072c0.026-0.02,0.054-0.028,0.085-0.028H42.459z
	 M36.842,59.464c-0.15,0-0.288-0.026-0.413-0.078s-0.233-0.126-0.324-0.224c-0.09-0.099-0.161-0.218-0.212-0.359
	s-0.076-0.303-0.076-0.484c0-0.231,0.036-0.45,0.109-0.655c0.072-0.205,0.172-0.384,0.299-0.537s0.277-0.274,0.448-0.362
	c0.171-0.09,0.355-0.134,0.553-0.134c0.15,0,0.288,0.025,0.414,0.077c0.125,0.051,0.233,0.127,0.323,0.225
	c0.091,0.098,0.162,0.217,0.212,0.359c0.051,0.141,0.076,0.301,0.076,0.481c0,0.229-0.036,0.447-0.109,0.652
	s-0.171,0.385-0.297,0.538c-0.126,0.154-0.275,0.275-0.448,0.365S37.04,59.464,36.842,59.464z M36.889,59.086
	c0.132,0,0.253-0.037,0.361-0.109s0.201-0.169,0.277-0.29c0.077-0.12,0.136-0.259,0.178-0.417c0.042-0.157,0.063-0.322,0.063-0.495
	c0-0.254-0.05-0.445-0.151-0.573c-0.101-0.127-0.246-0.191-0.434-0.191c-0.134,0-0.255,0.036-0.363,0.107s-0.2,0.168-0.276,0.287
	c-0.076,0.12-0.135,0.259-0.177,0.417c-0.042,0.157-0.063,0.322-0.063,0.495c0,0.253,0.05,0.444,0.149,0.574
	S36.698,59.086,36.889,59.086z M33.628,57.366c0.147-0.242,0.313-0.427,0.498-0.551c0.185-0.124,0.375-0.186,0.571-0.186
	c0.116,0,0.219,0.022,0.306,0.069c0.088,0.045,0.16,0.113,0.215,0.202s0.092,0.198,0.112,0.327c0.02,0.13,0.02,0.278,0,0.443
	l-0.207,1.754h-0.481l0.207-1.754c0.025-0.218,0.012-0.379-0.041-0.483c-0.052-0.104-0.149-0.156-0.291-0.156
	c-0.087,0-0.175,0.023-0.265,0.07c-0.089,0.048-0.177,0.114-0.26,0.201c-0.083,0.088-0.16,0.191-0.232,0.314
	c-0.071,0.122-0.133,0.259-0.184,0.409l-0.158,1.398h-0.484l0.332-2.758h0.24c0.108,0,0.163,0.054,0.163,0.163L33.628,57.366z
	 M30.452,57.244h0.179c0.063,0,0.116-0.009,0.157-0.025c0.041-0.018,0.08-0.047,0.118-0.089l1.349-1.479
	c0.038-0.049,0.078-0.081,0.12-0.098c0.042-0.017,0.089-0.024,0.144-0.024h0.432l-1.556,1.687c-0.072,0.083-0.143,0.141-0.212,0.171
	c0.043,0.019,0.083,0.042,0.116,0.071c0.033,0.03,0.063,0.071,0.09,0.122l1.175,1.847h-0.438c-0.067,0-0.114-0.01-0.142-0.029
	s-0.051-0.045-0.071-0.08l-1.022-1.556c-0.027-0.045-0.059-0.078-0.095-0.097s-0.093-0.028-0.171-0.028h-0.22l-0.22,1.79h-0.506
	l0.476-3.897h0.509L30.452,57.244z"/>
</svg>
