<?xml version="1.0" encoding="utf-8"?>
<!-- Generator: Adobe Illustrator 16.0.0, SVG Export Plug-In . SVG Version: 6.00 Build 0)  -->
<!DOCTYPE svg PUBLIC "-//W3C//DTD SVG 1.1//EN" "http://www.w3.org/Graphics/SVG/1.1/DTD/svg11.dtd">
<svg version="1.1" id="Layer_1" xmlns="http://www.w3.org/2000/svg" xmlns:xlink="http://www.w3.org/1999/xlink" x="0px" y="0px"
	 width="94.325px" height="58.5px" viewBox="0 0 94.325 58.5" enable-background="new 0 0 94.325 58.5" xml:space="preserve">
<path fill-rule="evenodd" clip-rule="evenodd" fill="#5EC7D1" d="M15.52,31.549V25.65l8.088-4.67
	c0.471-0.272,0.634-0.88,0.362-1.352c-0.272-0.471-0.88-0.634-1.351-0.362l-7.011,4.048v-7.351l7.771-4.486
	c0.471-0.271,0.634-0.88,0.362-1.352c-0.272-0.471-0.88-0.634-1.351-0.361l-6.782,3.915V8.409c0-0.544-0.445-0.989-0.989-0.989
	s-0.989,0.445-0.989,0.989v4.802c0.004,0.361-0.321,0.385-0.469,0.3L6.671,9.765C6.2,9.492,5.592,9.655,5.32,10.126
	c-0.272,0.472-0.109,1.08,0.362,1.352l7.35,4.243c0.345,0.177,0.518,0.418,0.509,0.758v0.679v3.791L6.441,16.85
	C5.97,16.577,5.362,16.74,5.09,17.212c-0.272,0.472-0.109,1.079,0.362,1.352l8.088,4.67v1.274v2.285v1.329l-7.107-4.104
	c-0.471-0.271-1.079-0.108-1.351,0.362c-0.272,0.472-0.109,1.08,0.362,1.352l8.097,4.675L15.52,31.549z M14.546,2l5.936,3.428
	l5.324,3.074c0.362,0.248,0.602,0.66,0.611,1.131h0v6.075v3.427v4.384l0,0v0.961h0c-0.009,0.47-0.249,0.883-0.611,1.131
	l-5.324,3.073l-4.962,2.865v10.15c0,0.544-0.445,0.989-0.989,0.989c-0.544,0-0.99-0.445-0.99-0.989v-6.01L8.61,32.843l-5.324-3.074
	h0l-0.612-0.353l0.611,0.353c-0.362-0.247-0.602-0.661-0.611-1.131h0v-6.075v-0.001v-6.854V9.633h0
	C2.684,9.162,2.924,8.75,3.286,8.502L8.61,5.428L14.546,2l0.6,0.347c-0.182-0.086-0.386-0.135-0.6-0.135
	c-0.215,0-0.418,0.049-0.601,0.135L14.546,2z"/>
<path fill="#F3F6FB" d="M91.654,21.769h-3.492c-0.225,0-0.403,0.06-0.537,0.169c-0.135,0.114-0.225,0.279-0.27,0.488l-3.463,13.97
	l-3.463-13.97c-0.045-0.209-0.134-0.374-0.268-0.488c-0.135-0.109-0.314-0.169-0.538-0.169h-2.896c-0.269,0-0.463,0.074-0.572,0.214
	c-0.109,0.145-0.129,0.354-0.055,0.622l0.945,3.438l-2.766,10.354l-3.463-13.97c-0.045-0.209-0.135-0.374-0.27-0.488
	c-0.134-0.109-0.313-0.169-0.537-0.169H66.52c-0.269,0-0.463,0.074-0.572,0.214c-0.109,0.145-0.129,0.354-0.055,0.622l5.344,19.433
	c0.06,0.225,0.164,0.384,0.309,0.483c0.139,0.1,0.318,0.144,0.527,0.144h3.82c0.209,0,0.389-0.044,0.533-0.144
	c0.139-0.1,0.243-0.259,0.303-0.483l2.358-8.567l2.358,8.567c0.06,0.225,0.164,0.384,0.309,0.483c0.139,0.1,0.318,0.144,0.527,0.144
	h3.82c0.209,0,0.389-0.044,0.533-0.144c0.139-0.1,0.244-0.259,0.303-0.483l5.344-19.433c0.074-0.269,0.055-0.478-0.055-0.622
	C92.117,21.843,91.923,21.769,91.654,21.769"/>
<path fill="#F3F6FB" d="M55.116,42.664c1.209-0.004,2.354-0.184,3.438-0.542c1.079-0.357,2.068-0.865,2.959-1.527
	c0.887-0.657,1.647-1.433,2.274-2.338c0.627-0.9,1.089-1.9,1.388-2.995c0.055-0.244,0.025-0.434-0.094-0.567
	c-0.12-0.14-0.304-0.209-0.563-0.209h-3.522c-0.204,0-0.374,0.05-0.507,0.154c-0.131,0.1-0.24,0.249-0.329,0.442
	c-0.284,0.607-0.677,1.135-1.175,1.567c-0.502,0.438-1.079,0.771-1.74,1.006c-0.657,0.233-1.369,0.353-2.13,0.353
	c-1.239-0.01-2.313-0.269-3.224-0.781s-1.612-1.233-2.109-2.159c-0.498-0.93-0.752-2.015-0.757-3.269
	c0.005-1.254,0.259-2.339,0.757-3.269c0.497-0.926,1.199-1.647,2.109-2.159c0.91-0.513,1.984-0.771,3.224-0.781
	c0.761,0,1.473,0.119,2.13,0.354c0.661,0.233,1.238,0.566,1.74,1.005c0.498,0.433,0.891,0.96,1.175,1.566
	c0.089,0.194,0.198,0.344,0.329,0.443c0.133,0.104,0.303,0.154,0.507,0.154h3.522c0.259-0.005,0.442-0.08,0.563-0.229
	c0.119-0.149,0.148-0.349,0.094-0.607c-0.313-1.095-0.785-2.09-1.418-2.985c-0.631-0.896-1.393-1.672-2.278-2.323
	c-0.891-0.646-1.87-1.149-2.95-1.503c-1.074-0.348-2.214-0.527-3.413-0.532c-1.264,0.005-2.448,0.185-3.548,0.538
	c-1.104,0.357-2.104,0.86-3,1.517c-0.895,0.652-1.662,1.429-2.308,2.329c-0.642,0.9-1.139,1.896-1.482,2.989
	c-0.348,1.096-0.522,2.259-0.528,3.493c0.005,1.233,0.18,2.397,0.528,3.492c0.343,1.095,0.841,2.09,1.482,2.99
	c0.646,0.9,1.413,1.677,2.308,2.329c0.896,0.656,1.896,1.159,3,1.517C52.668,42.48,53.853,42.66,55.116,42.664"/>
<path fill="#F3F6FB" d="M34.698,42.664c0.747,0,1.468-0.084,2.165-0.253c0.701-0.17,1.353-0.428,1.955-0.776
	c0.607-0.349,1.134-0.786,1.587-1.318c0.458-0.527,0.811-1.154,1.069-1.876c0.254-0.722,0.383-1.542,0.388-2.463V22.097
	c0-0.238-0.065-0.423-0.194-0.552c-0.129-0.13-0.313-0.194-0.552-0.194h-3.283c-0.239,0-0.423,0.064-0.552,0.194
	c-0.129,0.129-0.194,0.313-0.194,0.552v13.881c0.005,0.647-0.189,1.145-0.577,1.498c-0.388,0.348-0.995,0.527-1.811,0.532
	c-0.701,0.005-1.239-0.139-1.622-0.438c-0.383-0.294-0.617-0.776-0.707-1.443c-0.045-0.238-0.129-0.423-0.254-0.552
	c-0.124-0.13-0.298-0.194-0.522-0.194H28.28c-0.239,0-0.423,0.064-0.547,0.199c-0.124,0.129-0.184,0.323-0.169,0.577
	c0.089,1.154,0.343,2.145,0.756,2.97c0.417,0.821,0.955,1.498,1.612,2.021c0.662,0.522,1.398,0.905,2.214,1.149
	C32.957,42.545,33.813,42.664,34.698,42.664"/>
<path fill="#FFFFFF" d="M78.971,53.547c0.143-0.212,0.3-0.372,0.473-0.48c0.174-0.108,0.35-0.162,0.528-0.162
	c0.116,0,0.22,0.022,0.307,0.068c0.088,0.045,0.159,0.112,0.214,0.2c0.055,0.089,0.092,0.196,0.111,0.324s0.02,0.274,0,0.438
	l-0.204,1.734h-0.479l0.204-1.734c0.027-0.215,0.014-0.375-0.037-0.479c-0.053-0.104-0.149-0.155-0.291-0.155
	c-0.08,0-0.164,0.021-0.25,0.065s-0.168,0.106-0.248,0.188c-0.08,0.08-0.155,0.178-0.227,0.293c-0.07,0.115-0.133,0.243-0.185,0.385
	l-0.175,1.438h-0.477l0.479-3.962h0.479L78.971,53.547z M76.545,55.155c0-0.011,0-0.025,0-0.042c0-0.018,0.002-0.041,0.005-0.073
	s0.007-0.075,0.013-0.127c0.007-0.052,0.015-0.12,0.025-0.204l0.167-1.363h-0.304c-0.025,0-0.045-0.01-0.061-0.026
	c-0.016-0.018-0.021-0.043-0.018-0.079l0.021-0.191l0.42-0.056l0.204-0.842c0.009-0.027,0.023-0.05,0.042-0.066
	c0.02-0.018,0.042-0.025,0.07-0.025h0.25l-0.115,0.938h0.715l-0.039,0.348h-0.719l-0.164,1.339
	c-0.009,0.073-0.016,0.133-0.021,0.178s-0.009,0.08-0.012,0.107c-0.002,0.026-0.004,0.046-0.006,0.057
	c0,0.011-0.001,0.019-0.001,0.024c0,0.091,0.021,0.158,0.064,0.202s0.101,0.066,0.172,0.066c0.049,0,0.091-0.007,0.126-0.021
	s0.065-0.027,0.092-0.044c0.027-0.016,0.049-0.031,0.068-0.045c0.018-0.013,0.033-0.02,0.045-0.02c0.016,0,0.029,0.003,0.037,0.011
	c0.008,0.007,0.016,0.019,0.021,0.035l0.104,0.229c-0.088,0.077-0.188,0.137-0.301,0.181c-0.111,0.044-0.225,0.066-0.338,0.066
	c-0.174,0-0.31-0.047-0.409-0.143C76.601,55.475,76.549,55.337,76.545,55.155z M76.217,52.944l-1.143,2.725h-0.363
	c-0.043,0-0.07-0.03-0.08-0.091l-0.332-1.849c-0.003-0.03-0.006-0.06-0.009-0.088c-0.003-0.027-0.007-0.057-0.009-0.087
	c-0.021,0.06-0.042,0.119-0.065,0.178l-0.785,1.846c-0.025,0.061-0.062,0.091-0.11,0.091h-0.35l-0.479-2.725h0.357
	c0.035,0,0.064,0.009,0.086,0.027c0.021,0.018,0.036,0.042,0.043,0.072l0.25,1.754c0.004,0.063,0.008,0.124,0.011,0.183
	c0.004,0.06,0.007,0.117,0.009,0.175c0.02-0.058,0.041-0.115,0.064-0.175c0.023-0.059,0.047-0.12,0.072-0.183l0.745-1.765
	c0.009-0.026,0.026-0.049,0.052-0.067c0.024-0.018,0.052-0.026,0.082-0.026h0.199c0.034,0,0.061,0.009,0.081,0.026
	c0.02,0.019,0.032,0.041,0.034,0.067l0.307,1.765c0.01,0.063,0.018,0.123,0.025,0.181c0.007,0.059,0.014,0.117,0.019,0.177
	c0.017-0.058,0.034-0.115,0.053-0.175c0.019-0.059,0.038-0.12,0.06-0.183l0.691-1.754c0.01-0.028,0.027-0.053,0.053-0.071
	c0.026-0.02,0.055-0.028,0.085-0.028H76.217z M70.662,55.707c-0.148,0-0.284-0.026-0.408-0.077c-0.123-0.052-0.23-0.124-0.32-0.222
	c-0.09-0.097-0.159-0.215-0.209-0.354c-0.051-0.141-0.076-0.3-0.076-0.479c0-0.229,0.036-0.445,0.107-0.647
	c0.072-0.203,0.171-0.381,0.297-0.532c0.125-0.151,0.273-0.271,0.441-0.358c0.17-0.088,0.353-0.132,0.548-0.132
	c0.149,0,0.285,0.025,0.409,0.076c0.123,0.051,0.23,0.126,0.32,0.222c0.089,0.098,0.159,0.216,0.209,0.355
	c0.051,0.14,0.075,0.298,0.075,0.477c0,0.228-0.036,0.442-0.107,0.646c-0.071,0.202-0.169,0.38-0.294,0.532
	s-0.272,0.272-0.443,0.361C71.041,55.662,70.857,55.707,70.662,55.707z M70.709,55.333c0.131,0,0.25-0.036,0.355-0.107
	c0.107-0.072,0.199-0.168,0.275-0.287s0.135-0.257,0.176-0.412c0.041-0.156,0.063-0.319,0.063-0.49c0-0.251-0.051-0.439-0.15-0.566
	c-0.1-0.126-0.242-0.189-0.429-0.189c-0.133,0-0.252,0.035-0.358,0.106c-0.107,0.07-0.198,0.166-0.273,0.284
	c-0.076,0.118-0.134,0.256-0.176,0.411c-0.041,0.156-0.061,0.319-0.061,0.49c0,0.251,0.049,0.439,0.147,0.567
	C70.377,55.269,70.52,55.333,70.709,55.333z M68.492,53.703c0.072-0.152,0.149-0.285,0.232-0.397
	c0.084-0.112,0.171-0.199,0.262-0.264c0.092-0.063,0.186-0.103,0.283-0.115c0.097-0.014,0.195,0.001,0.296,0.045l-0.087,0.46
	c-0.232-0.094-0.438-0.06-0.616,0.102s-0.323,0.453-0.435,0.874l-0.15,1.262h-0.469l0.328-2.728h0.236
	c0.11,0,0.165,0.054,0.165,0.161L68.492,53.703z M66.271,53.824h1.105l-0.183,1.471c-0.098,0.07-0.197,0.131-0.3,0.184
	c-0.104,0.052-0.212,0.095-0.325,0.13c-0.114,0.035-0.235,0.061-0.363,0.078c-0.127,0.017-0.264,0.025-0.41,0.025
	c-0.234,0-0.445-0.042-0.636-0.126c-0.19-0.082-0.353-0.199-0.487-0.349c-0.133-0.149-0.236-0.328-0.31-0.536
	c-0.072-0.208-0.109-0.436-0.109-0.684c0-0.332,0.052-0.636,0.155-0.911c0.104-0.274,0.246-0.512,0.428-0.71
	s0.398-0.352,0.648-0.461s0.522-0.164,0.818-0.164c0.15,0,0.287,0.013,0.408,0.038c0.121,0.024,0.23,0.06,0.33,0.104
	s0.189,0.098,0.27,0.159c0.08,0.061,0.152,0.127,0.219,0.199l-0.162,0.209c-0.026,0.038-0.058,0.062-0.094,0.07
	c-0.037,0.009-0.076,0.001-0.115-0.024c-0.039-0.023-0.082-0.054-0.131-0.09c-0.047-0.037-0.105-0.072-0.174-0.105
	s-0.149-0.062-0.244-0.086c-0.096-0.024-0.21-0.036-0.344-0.036c-0.221,0-0.423,0.042-0.607,0.126
	c-0.184,0.085-0.341,0.205-0.473,0.361s-0.234,0.344-0.307,0.564s-0.109,0.466-0.109,0.737c0,0.202,0.027,0.384,0.08,0.546
	c0.053,0.161,0.127,0.299,0.224,0.411c0.097,0.113,0.214,0.199,0.35,0.26c0.136,0.06,0.288,0.091,0.455,0.091
	c0.093,0,0.181-0.006,0.261-0.017s0.156-0.026,0.229-0.045s0.14-0.042,0.205-0.07c0.063-0.027,0.129-0.059,0.193-0.095l0.107-0.872
	h-0.538c-0.032,0-0.058-0.01-0.075-0.028s-0.025-0.041-0.021-0.067L66.271,53.824z M61.732,53.703
	c0.072-0.152,0.15-0.285,0.233-0.397s0.171-0.199,0.262-0.264c0.092-0.063,0.186-0.103,0.282-0.115
	c0.098-0.014,0.195,0.001,0.297,0.045l-0.087,0.46c-0.233-0.094-0.438-0.06-0.616,0.102c-0.18,0.161-0.324,0.453-0.436,0.874
	l-0.15,1.262h-0.469l0.328-2.728h0.237c0.11,0,0.165,0.054,0.165,0.161L61.732,53.703z M59.271,55.707
	c-0.148,0-0.285-0.026-0.408-0.077c-0.124-0.052-0.23-0.124-0.32-0.222c-0.09-0.097-0.16-0.215-0.21-0.354
	c-0.05-0.141-0.075-0.3-0.075-0.479c0-0.229,0.035-0.445,0.107-0.647c0.072-0.203,0.17-0.381,0.296-0.532s0.273-0.271,0.442-0.358
	c0.17-0.088,0.352-0.132,0.547-0.132c0.149,0,0.285,0.025,0.41,0.076c0.123,0.051,0.229,0.126,0.319,0.222
	c0.09,0.098,0.159,0.216,0.21,0.355c0.05,0.14,0.075,0.298,0.075,0.477c0,0.228-0.036,0.442-0.108,0.646
	c-0.07,0.202-0.169,0.38-0.293,0.532c-0.125,0.152-0.273,0.272-0.443,0.361S59.467,55.707,59.271,55.707z M59.317,55.333
	c0.131,0,0.25-0.036,0.356-0.107c0.107-0.072,0.199-0.168,0.275-0.287s0.134-0.257,0.175-0.412c0.042-0.156,0.063-0.319,0.063-0.49
	c0-0.251-0.05-0.439-0.149-0.566c-0.1-0.126-0.242-0.189-0.43-0.189c-0.133,0-0.252,0.035-0.358,0.106
	c-0.106,0.07-0.198,0.166-0.273,0.284s-0.134,0.256-0.175,0.411c-0.041,0.156-0.062,0.319-0.062,0.49
	c0,0.251,0.049,0.439,0.147,0.567C58.986,55.269,59.129,55.333,59.317,55.333z M56.439,52.227l-0.166,1.371h1.441l-0.055,0.409
	h-1.439l-0.203,1.662h-0.506l0.473-3.854h2.195l-0.051,0.412H56.439z M53.717,55.166c-0.091,0.095-0.181,0.176-0.269,0.243
	c-0.087,0.067-0.177,0.123-0.267,0.169c-0.091,0.044-0.186,0.077-0.285,0.098c-0.1,0.02-0.207,0.031-0.322,0.031
	c-0.156,0-0.296-0.026-0.42-0.078c-0.123-0.052-0.229-0.127-0.314-0.223s-0.152-0.211-0.199-0.348
	c-0.047-0.136-0.07-0.289-0.07-0.457c0-0.141,0.016-0.28,0.045-0.419c0.03-0.139,0.073-0.271,0.13-0.396
	c0.056-0.126,0.126-0.242,0.207-0.35s0.175-0.2,0.28-0.278c0.104-0.078,0.221-0.14,0.347-0.185c0.126-0.044,0.262-0.066,0.407-0.066
	c0.138,0,0.257,0.02,0.357,0.059c0.1,0.039,0.184,0.09,0.247,0.15c0.065,0.062,0.113,0.128,0.145,0.202
	c0.031,0.073,0.046,0.144,0.046,0.21c0,0.118-0.023,0.227-0.072,0.326s-0.137,0.189-0.266,0.27
	c-0.129,0.079-0.307,0.149-0.533,0.209c-0.226,0.059-0.516,0.105-0.871,0.142c0,0.02,0,0.039-0.001,0.058
	c-0.001,0.02-0.001,0.038-0.001,0.059c0,0.24,0.053,0.423,0.157,0.549c0.104,0.127,0.263,0.19,0.474,0.19
	c0.086,0,0.164-0.009,0.23-0.027c0.068-0.018,0.128-0.04,0.181-0.065c0.053-0.026,0.1-0.056,0.14-0.086
	c0.041-0.032,0.077-0.061,0.11-0.087c0.033-0.025,0.063-0.047,0.093-0.064c0.028-0.019,0.057-0.027,0.086-0.027
	c0.034,0,0.064,0.016,0.092,0.046L53.717,55.166z M52.959,53.251c-0.113,0-0.217,0.023-0.313,0.07
	c-0.094,0.046-0.179,0.11-0.252,0.191c-0.074,0.082-0.137,0.178-0.189,0.288c-0.051,0.11-0.092,0.229-0.12,0.356
	c0.276-0.033,0.497-0.073,0.664-0.117s0.295-0.092,0.385-0.143c0.089-0.051,0.148-0.105,0.177-0.165
	c0.029-0.059,0.044-0.121,0.044-0.186c0-0.032-0.007-0.066-0.021-0.102c-0.015-0.034-0.037-0.066-0.068-0.095
	s-0.072-0.053-0.123-0.071C53.092,53.26,53.031,53.251,52.959,53.251z M51.447,53.044l-0.02,0.158
	c-0.008,0.065-0.044,0.108-0.107,0.13l-0.342,0.059c0.035,0.094,0.053,0.196,0.053,0.31c0,0.09-0.011,0.171-0.031,0.242
	c-0.021,0.072-0.047,0.138-0.077,0.199c-0.03,0.061-0.063,0.118-0.1,0.172s-0.069,0.106-0.099,0.159
	c-0.031,0.054-0.057,0.107-0.077,0.165c-0.021,0.056-0.031,0.118-0.031,0.184c0,0.049,0.009,0.095,0.026,0.139
	c0.017,0.044,0.039,0.087,0.064,0.129s0.055,0.085,0.086,0.128c0.031,0.044,0.061,0.09,0.086,0.138s0.047,0.101,0.064,0.157
	c0.018,0.056,0.025,0.118,0.025,0.188c-0.002,0.127-0.033,0.247-0.092,0.36c-0.059,0.114-0.144,0.216-0.252,0.304
	c-0.109,0.088-0.243,0.156-0.399,0.208c-0.156,0.051-0.332,0.077-0.527,0.077c-0.156,0-0.297-0.016-0.425-0.049
	c-0.128-0.032-0.238-0.078-0.329-0.138c-0.09-0.059-0.16-0.13-0.21-0.214c-0.049-0.083-0.074-0.175-0.074-0.275
	c0-0.114,0.024-0.216,0.073-0.304s0.114-0.163,0.196-0.228c0.083-0.063,0.179-0.116,0.288-0.156
	c0.109-0.042,0.226-0.072,0.349-0.092s0.249-0.03,0.377-0.029s0.255,0.011,0.379,0.029c-0.016-0.034-0.028-0.07-0.038-0.107
	c-0.01-0.036-0.016-0.076-0.016-0.119c0-0.056,0.009-0.112,0.026-0.172c0.017-0.06,0.044-0.127,0.084-0.201
	c-0.068,0.046-0.144,0.082-0.229,0.107c-0.084,0.026-0.18,0.04-0.288,0.04c-0.104,0-0.201-0.018-0.292-0.052
	c-0.09-0.033-0.17-0.084-0.239-0.149c-0.068-0.067-0.122-0.15-0.161-0.25s-0.06-0.215-0.06-0.348c0-0.129,0.025-0.257,0.072-0.381
	c0.048-0.125,0.117-0.236,0.208-0.334c0.092-0.098,0.205-0.175,0.339-0.234c0.134-0.06,0.29-0.089,0.465-0.089
	c0.097,0,0.189,0.012,0.277,0.035s0.167,0.058,0.237,0.104H51.447z M50.533,55.736c0-0.049-0.005-0.093-0.014-0.133
	c-0.01-0.041-0.021-0.079-0.035-0.115c-0.237-0.037-0.441-0.052-0.613-0.042c-0.172,0.011-0.314,0.037-0.426,0.08
	c-0.112,0.043-0.195,0.099-0.25,0.167c-0.054,0.068-0.081,0.142-0.081,0.221c0,0.129,0.055,0.228,0.163,0.296
	c0.109,0.068,0.262,0.103,0.461,0.103c0.119,0,0.227-0.017,0.325-0.048s0.181-0.073,0.25-0.125s0.123-0.112,0.162-0.183
	C50.514,55.887,50.533,55.813,50.533,55.736z M49.992,54.44c0.097,0,0.183-0.021,0.257-0.063c0.074-0.043,0.137-0.099,0.188-0.167
	c0.051-0.069,0.09-0.146,0.117-0.232c0.026-0.086,0.04-0.174,0.04-0.262c0-0.157-0.04-0.276-0.119-0.356
	c-0.08-0.081-0.19-0.122-0.33-0.122c-0.097,0-0.182,0.021-0.255,0.06c-0.074,0.039-0.136,0.093-0.187,0.158
	c-0.051,0.067-0.09,0.143-0.116,0.227s-0.04,0.172-0.04,0.264c0,0.161,0.04,0.284,0.118,0.368
	C49.744,54.398,49.852,54.44,49.992,54.44z M48.741,51.707l-0.487,3.962h-0.25c-0.063,0-0.105-0.016-0.126-0.048
	c-0.021-0.033-0.032-0.072-0.032-0.119l0.051-0.572c-0.068,0.118-0.143,0.225-0.223,0.319c-0.081,0.096-0.165,0.177-0.254,0.245
	s-0.181,0.12-0.277,0.157c-0.096,0.036-0.194,0.056-0.292,0.056c-0.233,0-0.415-0.086-0.543-0.255s-0.193-0.415-0.193-0.738
	c0-0.146,0.015-0.294,0.045-0.44c0.031-0.147,0.075-0.288,0.131-0.423c0.056-0.135,0.125-0.26,0.204-0.375
	c0.08-0.116,0.168-0.216,0.267-0.3c0.099-0.085,0.205-0.15,0.319-0.199c0.114-0.049,0.233-0.072,0.358-0.072
	c0.135,0,0.257,0.025,0.368,0.079c0.11,0.053,0.204,0.128,0.281,0.225l0.186-1.501H48.741z M48.048,53.539
	c-0.068-0.097-0.15-0.165-0.246-0.204c-0.096-0.038-0.194-0.057-0.292-0.057c-0.142,0-0.269,0.042-0.381,0.126
	c-0.113,0.084-0.209,0.193-0.289,0.326c-0.08,0.134-0.142,0.284-0.185,0.449c-0.043,0.164-0.064,0.326-0.064,0.486
	c0,0.213,0.039,0.376,0.114,0.487c0.077,0.112,0.185,0.169,0.327,0.169c0.086,0,0.173-0.027,0.261-0.081
	c0.088-0.054,0.173-0.129,0.255-0.225s0.158-0.209,0.229-0.34s0.132-0.274,0.184-0.431L48.048,53.539z M45.694,55.166
	c-0.091,0.095-0.181,0.176-0.269,0.243c-0.088,0.067-0.177,0.123-0.268,0.169c-0.09,0.044-0.186,0.077-0.285,0.098
	c-0.099,0.02-0.207,0.031-0.322,0.031c-0.156,0-0.296-0.026-0.419-0.078s-0.229-0.127-0.315-0.223
	c-0.086-0.096-0.152-0.211-0.199-0.348c-0.047-0.136-0.07-0.289-0.07-0.457c0-0.141,0.016-0.28,0.045-0.419
	c0.03-0.139,0.073-0.271,0.129-0.396c0.056-0.126,0.125-0.242,0.207-0.35s0.175-0.2,0.279-0.278c0.105-0.078,0.221-0.14,0.347-0.185
	c0.126-0.044,0.262-0.066,0.407-0.066c0.138,0,0.257,0.02,0.357,0.059c0.101,0.039,0.183,0.09,0.248,0.15
	c0.064,0.062,0.113,0.128,0.144,0.202c0.031,0.073,0.046,0.144,0.046,0.21c0,0.118-0.024,0.227-0.072,0.326s-0.137,0.189-0.267,0.27
	c-0.129,0.079-0.307,0.149-0.532,0.209c-0.226,0.059-0.517,0.105-0.872,0.142c0,0.02,0,0.039-0.001,0.058
	c-0.001,0.02-0.002,0.038-0.002,0.059c0,0.24,0.053,0.423,0.158,0.549c0.104,0.127,0.263,0.19,0.474,0.19
	c0.086,0,0.163-0.009,0.23-0.027c0.067-0.018,0.127-0.04,0.18-0.065c0.053-0.026,0.099-0.056,0.14-0.086
	c0.041-0.032,0.077-0.061,0.11-0.087c0.033-0.025,0.064-0.047,0.093-0.064c0.028-0.019,0.057-0.027,0.086-0.027
	c0.034,0,0.064,0.016,0.091,0.046L45.694,55.166z M44.936,53.251c-0.113,0-0.217,0.023-0.312,0.07
	c-0.095,0.046-0.179,0.11-0.253,0.191c-0.073,0.082-0.136,0.178-0.188,0.288c-0.052,0.11-0.092,0.229-0.121,0.356
	c0.276-0.033,0.498-0.073,0.664-0.117c0.167-0.044,0.295-0.092,0.385-0.143c0.09-0.051,0.149-0.105,0.178-0.165
	c0.029-0.059,0.043-0.121,0.043-0.186c0-0.032-0.007-0.066-0.022-0.102c-0.014-0.034-0.037-0.066-0.068-0.095
	s-0.073-0.053-0.123-0.071C45.068,53.26,45.007,53.251,44.936,53.251z M42.354,55.669l0.481-3.962h0.471l-0.481,3.962H42.354z
	 M42.227,52.944l-1.143,2.725h-0.363c-0.043,0-0.07-0.03-0.081-0.091l-0.331-1.849c-0.003-0.03-0.006-0.06-0.009-0.088
	c-0.002-0.027-0.006-0.057-0.01-0.087c-0.02,0.06-0.041,0.119-0.064,0.178l-0.786,1.846c-0.025,0.061-0.062,0.091-0.11,0.091h-0.35
	l-0.479-2.725h0.357c0.036,0,0.065,0.009,0.086,0.027c0.021,0.018,0.036,0.042,0.043,0.072l0.25,1.754
	c0.003,0.063,0.007,0.124,0.011,0.183c0.004,0.06,0.006,0.117,0.008,0.175c0.02-0.058,0.041-0.115,0.064-0.175
	c0.023-0.059,0.047-0.12,0.072-0.183l0.745-1.765c0.009-0.026,0.026-0.049,0.051-0.067c0.025-0.018,0.053-0.026,0.083-0.026h0.199
	c0.034,0,0.061,0.009,0.081,0.026c0.02,0.019,0.031,0.041,0.035,0.067l0.307,1.765c0.009,0.063,0.017,0.123,0.024,0.181
	c0.007,0.059,0.013,0.117,0.019,0.177c0.016-0.058,0.034-0.115,0.053-0.175c0.019-0.059,0.039-0.12,0.06-0.183l0.691-1.754
	c0.009-0.028,0.027-0.053,0.053-0.071c0.026-0.02,0.054-0.028,0.084-0.028H42.227z M36.673,55.707c-0.149,0-0.285-0.026-0.409-0.077
	c-0.124-0.052-0.23-0.124-0.32-0.222c-0.09-0.097-0.16-0.215-0.21-0.354c-0.05-0.141-0.075-0.3-0.075-0.479
	c0-0.229,0.036-0.445,0.108-0.647c0.072-0.203,0.17-0.381,0.295-0.532c0.126-0.151,0.274-0.271,0.443-0.358s0.351-0.132,0.547-0.132
	c0.148,0,0.285,0.025,0.409,0.076s0.23,0.126,0.32,0.222c0.09,0.098,0.16,0.216,0.21,0.355s0.075,0.298,0.075,0.477
	c0,0.228-0.036,0.442-0.107,0.646c-0.072,0.202-0.169,0.38-0.294,0.532c-0.125,0.152-0.272,0.272-0.443,0.361
	S36.868,55.707,36.673,55.707z M36.718,55.333c0.131,0,0.25-0.036,0.357-0.107c0.107-0.072,0.198-0.168,0.274-0.287
	s0.134-0.257,0.176-0.412c0.042-0.156,0.062-0.319,0.062-0.49c0-0.251-0.049-0.439-0.149-0.566c-0.1-0.126-0.243-0.189-0.429-0.189
	c-0.133,0-0.252,0.035-0.359,0.106c-0.107,0.07-0.198,0.166-0.273,0.284s-0.134,0.256-0.175,0.411
	c-0.042,0.156-0.062,0.319-0.062,0.49c0,0.251,0.049,0.439,0.148,0.567C36.387,55.269,36.53,55.333,36.718,55.333z M33.494,53.633
	c0.146-0.24,0.309-0.422,0.492-0.545c0.183-0.123,0.371-0.184,0.565-0.184c0.115,0,0.216,0.022,0.303,0.068
	c0.087,0.045,0.158,0.112,0.212,0.2c0.055,0.089,0.092,0.196,0.111,0.324c0.02,0.128,0.02,0.274,0,0.438l-0.204,1.734h-0.476
	l0.204-1.734c0.025-0.215,0.012-0.375-0.041-0.478c-0.052-0.104-0.147-0.155-0.288-0.155c-0.086,0-0.173,0.023-0.262,0.07
	c-0.088,0.047-0.175,0.113-0.257,0.199s-0.159,0.188-0.229,0.31c-0.071,0.122-0.132,0.257-0.182,0.406l-0.156,1.382h-0.479
	l0.328-2.728h0.237c0.107,0,0.161,0.054,0.161,0.161L33.494,53.633z M30.352,53.512h0.177c0.063,0,0.115-0.009,0.155-0.025
	c0.041-0.018,0.079-0.046,0.117-0.087l1.334-1.464c0.038-0.048,0.077-0.08,0.119-0.097c0.041-0.017,0.088-0.024,0.142-0.024h0.428
	l-1.539,1.668c-0.072,0.082-0.142,0.14-0.209,0.17c0.043,0.018,0.082,0.041,0.115,0.07s0.063,0.07,0.089,0.12l1.162,1.826h-0.433
	c-0.066,0-0.113-0.01-0.14-0.028c-0.027-0.02-0.05-0.045-0.07-0.079l-1.012-1.539c-0.027-0.044-0.058-0.077-0.094-0.096
	c-0.036-0.019-0.093-0.027-0.169-0.027h-0.218l-0.218,1.77h-0.5l0.471-3.854h0.503L30.352,53.512z"/>
</svg>
