<?xml version="1.0" encoding="utf-8"?>
<!-- Generator: Adobe Illustrator 16.0.0, SVG Export Plug-In . SVG Version: 6.00 Build 0)  -->
<!DOCTYPE svg PUBLIC "-//W3C//DTD SVG 1.1//EN" "http://www.w3.org/Graphics/SVG/1.1/DTD/svg11.dtd">
<svg version="1.1" id="Layer_1" xmlns="http://www.w3.org/2000/svg" xmlns:xlink="http://www.w3.org/1999/xlink" x="0px" y="0px"
	 width="49px" height="49px" viewBox="0 0 49 49" enable-background="new 0 0 49 49" xml:space="preserve">
<g>
	<path fill="#BFE4CB" d="M29.545,38.975c-0.176,0-0.332,0-0.486,0c-5.471,0-10.941,0-16.413,0.002c-0.99,0-1.173-0.183-1.173-1.177
		c0-9.813-0.001-19.625-0.002-29.438c0-0.735,0.254-0.992,0.981-0.992c4.859,0,9.719,0.004,14.577-0.006
		c0.393,0,0.684,0.124,0.957,0.398c2.887,2.898,5.781,5.791,8.68,8.678c0.275,0.275,0.396,0.568,0.396,0.957
		c-0.011,4.483-0.006,8.967-0.006,13.449c0,0.201,0,0.402,0,0.629c2.141,0.327,3.821,1.344,4.975,3.154
		c0.818,1.281,1.193,2.703,1.012,4.214c-0.406,3.421-3.035,5.947-6.314,6.146C33.623,45.175,30.201,43.111,29.545,38.975z
		 M13.008,8.896c0,9.539,0,19.042,0,28.54c5.535,0,11.041,0,16.563,0c0.217-1.568,0.863-2.9,1.959-4
		c1.109-1.107,2.467-1.734,3.998-1.959c0-4.539,0-9.032,0-13.57c-0.207,0-0.391,0-0.574,0c-2.477,0-4.951,0.001-7.426-0.001
		c-0.771,0-1.004-0.239-1.006-1.013c0-2.491,0-4.982,0-7.475c0-0.166,0-0.334,0-0.521C21.996,8.896,17.52,8.896,13.008,8.896z
		 M36.268,43.486c2.937,0.004,5.295-2.34,5.303-5.266c0.005-2.893-2.356-5.263-5.254-5.268c-2.899-0.005-5.272,2.352-5.278,5.242
		C31.029,41.102,33.385,43.482,36.268,43.486z M34.273,16.379c-2.07-2.077-4.16-4.173-6.213-6.23c0,2.026,0,4.126,0,6.23
		C30.182,16.379,32.271,16.379,34.273,16.379z"/>
	<path fill="#BFE4CB" d="M36.119,39.396c-0.781-0.586-1.518-1.14-2.256-1.688c-0.455-0.336-0.877-0.313-1.16,0.051
		c-0.283,0.362-0.199,0.801,0.236,1.133c0.934,0.709,1.871,1.414,2.813,2.112c0.504,0.373,0.901,0.294,1.263-0.239
		c0.411-0.607,0.815-1.223,1.225-1.834c0.555-0.834,1.117-1.66,1.66-2.5c0.33-0.51,0.098-1.109-0.453-1.207
		c-0.391-0.068-0.646,0.137-0.852,0.449C37.787,36.898,36.971,38.12,36.119,39.396z"/>
	<path fill="#BFE4CB" d="M24.215,21.667c-2.695,0-5.388-0.003-8.083,0.004c-0.446,0-0.771-0.158-0.88-0.607
		c-0.12-0.495,0.266-0.896,0.862-0.898c1.974-0.006,3.947-0.004,5.921-0.004c3.431,0,6.859-0.004,10.291,0.012
		c0.258,0.002,0.596,0.086,0.752,0.26c0.148,0.17,0.189,0.524,0.133,0.765c-0.082,0.358-0.41,0.473-0.773,0.472
		c-1.52-0.004-3.039,0-4.559,0c-1.221,0-2.443,0-3.664,0C24.215,21.669,24.215,21.668,24.215,21.667z"/>
	<path fill="#BFE4CB" d="M24.254,24.677c2.678,0,5.357,0,8.035,0.003c0.17,0,0.354-0.005,0.508,0.054
		c0.367,0.137,0.551,0.43,0.482,0.814c-0.076,0.427-0.367,0.636-0.803,0.636c-1.756-0.002-3.511,0-5.265,0
		c-3.667,0-7.332,0-10.998,0c-0.062,0-0.125,0.002-0.188,0c-0.474-0.023-0.791-0.328-0.791-0.757c0-0.428,0.314-0.742,0.793-0.746
		c1.144-0.01,2.287-0.005,3.431-0.005C21.058,24.675,22.656,24.676,24.254,24.677L24.254,24.677z"/>
	<path fill="#BFE4CB" d="M24.213,30.695c-2.599,0-5.2,0-7.799,0c-0.077,0-0.156,0.002-0.234,0c-0.599-0.004-0.937-0.271-0.942-0.742
		c-0.005-0.473,0.339-0.76,0.926-0.762c2.021-0.002,4.04-0.002,6.062,0c3.352,0,6.704,0,10.055,0c0.047,0,0.094-0.002,0.141,0
		c0.545,0.013,0.883,0.31,0.873,0.769c-0.01,0.44-0.336,0.731-0.855,0.733c-1.348,0.008-2.694,0.005-4.041,0.005
		c-1.395,0-2.789,0-4.184,0C24.213,30.698,24.213,30.697,24.213,30.695z"/>
	<path fill="#BFE4CB" d="M22.38,33.706c2.083,0,4.167,0.005,6.249-0.003c0.426-0.001,0.74,0.14,0.873,0.558
		c0.158,0.503-0.234,0.947-0.844,0.949c-1.582,0.006-3.164,0.003-4.747,0.003c-2.567,0-5.137,0.01-7.704-0.013
		c-0.269-0.002-0.615-0.107-0.78-0.295c-0.144-0.162-0.193-0.577-0.083-0.753c0.14-0.219,0.481-0.42,0.742-0.428
		c1.282-0.043,2.567-0.021,3.852-0.021c0.814-0.001,1.629-0.001,2.442-0.001C22.38,33.706,22.38,33.706,22.38,33.706z"/>
	<path fill="#BFE4CB" d="M20.076,12.64c-1.3,0-2.599,0.002-3.897-0.001c-0.595-0.001-0.937-0.276-0.942-0.745
		c-0.006-0.471,0.343-0.762,0.925-0.762c2.661-0.001,5.322-0.001,7.984,0.002c0.506,0.002,0.822,0.257,0.868,0.672
		c0.038,0.367-0.206,0.723-0.571,0.808c-0.137,0.03-0.281,0.024-0.422,0.024C22.705,12.64,21.391,12.639,20.076,12.64z"/>
	<path fill="#BFE4CB" d="M20.125,15.647c1.299,0,2.598,0,3.898,0c0.639,0.001,0.982,0.26,0.993,0.74
		c0.008,0.482-0.345,0.764-0.97,0.764c-2.645,0.002-5.29-0.001-7.935,0.003c-0.361,0.001-0.696-0.095-0.786-0.454
		c-0.061-0.238-0.026-0.582,0.113-0.767c0.131-0.172,0.455-0.27,0.695-0.274C17.464,15.634,18.794,15.647,20.125,15.647z"/>
	<path fill="#BFE4CB" d="M36.119,39.396c0.852-1.276,1.668-2.498,2.477-3.723c0.207-0.313,0.461-0.519,0.853-0.449
		c0.551,0.098,0.782,0.697,0.452,1.207c-0.543,0.84-1.104,1.666-1.659,2.5c-0.408,0.611-0.813,1.227-1.226,1.834
		c-0.358,0.533-0.758,0.612-1.262,0.239c-0.943-0.698-1.881-1.403-2.814-2.112c-0.436-0.332-0.52-0.771-0.235-1.133
		c0.282-0.363,0.705-0.387,1.159-0.051C34.602,38.258,35.338,38.813,36.119,39.396z"/>
</g>
</svg>
