<?xml version="1.0" encoding="utf-8"?>
<!-- Generator: Adobe Illustrator 16.0.0, SVG Export Plug-In . SVG Version: 6.00 Build 0)  -->
<!DOCTYPE svg PUBLIC "-//W3C//DTD SVG 1.1//EN" "http://www.w3.org/Graphics/SVG/1.1/DTD/svg11.dtd">
<svg version="1.1" id="Layer_1" xmlns="http://www.w3.org/2000/svg" xmlns:xlink="http://www.w3.org/1999/xlink" x="0px" y="0px"
	 width="49px" height="49px" viewBox="0 0 49 49" enable-background="new 0 0 49 49" xml:space="preserve">
<g>
	<path fill-rule="evenodd" clip-rule="evenodd" fill="#5DAF78" d="M222.428-100.318c-1.282,0-2.477,0-3.672,0
		c-0.605,0-0.745-0.139-0.745-0.741c0.001-1.641,0.001-3.283,0.001-4.925c0-0.129,0-0.257,0-0.428
		c-0.141-0.009-0.264-0.021-0.387-0.021c-0.867-0.001-1.736,0.002-2.603-0.001c-0.511,0-0.668-0.161-0.669-0.676
		c-0.002-1.127-0.008-2.251,0.004-3.376c0.018-2.074,1.582-3.814,3.571-3.991c2.19-0.195,4.034,1.166,4.434,3.283
		c0.052,0.276,0.063,0.562,0.065,0.842c0.008,1.054,0.004,2.111,0.004,3.165c-0.002,0.614-0.138,0.753-0.738,0.753
		c-0.728,0-1.454,0-2.182,0c-0.126,0.001-0.252,0.011-0.398,0.017c0,1.673,0,3.319,0,5.017c0.137,0,0.262,0,0.386,0
		c1.091,0,2.181-0.01,3.271,0.005c0.267,0.005,0.419-0.077,0.568-0.299c2.224-3.32,4.458-6.634,6.693-9.945
		c0.649-0.963,1.78-1.303,2.728-0.777c0.314,0.177,0.608,0.452,0.813,0.752c2.241,3.278,4.466,6.571,6.685,9.865
		c0.169,0.25,0.334,0.357,0.646,0.352c1.193-0.022,2.388-0.01,3.61-0.01c0-1.667,0-3.313,0-4.999
		c-0.123-0.01-0.247-0.025-0.37-0.025c-0.739-0.001-1.479,0.002-2.216,0c-0.563-0.001-0.727-0.153-0.726-0.704
		c0.006-1.253-0.041-2.513,0.045-3.762c0.149-2.118,2.007-3.677,4.193-3.603c2.063,0.069,3.784,1.784,3.832,3.849
		c0.026,1.196,0.009,2.394,0.006,3.588c-0.001,0.463-0.168,0.626-0.646,0.631c-0.832,0.006-1.665,0.001-2.497,0.003
		c-0.116,0-0.23,0-0.393,0c0,0.152,0,0.278,0,0.404c-0.001,1.677,0,3.352-0.002,5.03c-0.001,0.576-0.15,0.726-0.728,0.726
		c-1.092,0.002-2.182,0-3.271,0c-0.115,0-0.229,0-0.415,0c0.174,0.261,0.312,0.472,0.455,0.679c0.466,0.671,0.504,1.389,0.13,2.094
		c-0.371,0.697-0.977,1.101-1.792,1.101c-5.5,0.005-10.999,0.005-16.499,0c-0.84,0-1.455-0.406-1.829-1.152
		c-0.359-0.715-0.281-1.403,0.178-2.055C222.109-99.853,222.246-100.056,222.428-100.318z M231.8-97.524c1.197,0,2.392,0,3.586,0
		c1.536-0.001,3.072-0.001,4.608-0.001c0.378-0.002,0.696-0.133,0.873-0.483c0.17-0.333,0.179-0.671-0.043-0.996
		c-2.747-4.056-5.491-8.112-8.239-12.163c-0.417-0.614-1.121-0.61-1.538,0.003c-2.736,4.034-5.469,8.068-8.195,12.108
		c-0.1,0.148-0.176,0.338-0.194,0.515c-0.061,0.614,0.364,1.017,1.055,1.017C226.408-97.524,229.104-97.525,231.8-97.524z
		 M221.332-107.592c0-1.025,0.01-2.02-0.001-3.013c-0.019-1.524-1.225-2.761-2.778-2.865c-1.486-0.101-2.881,0.984-3.053,2.47
		c-0.1,0.855-0.051,1.728-0.064,2.594c-0.005,0.266,0,0.532,0,0.814C217.412-107.592,219.351-107.592,221.332-107.592z
		 M242.35-107.593c1.937,0,3.875,0,5.845,0c0-1.047,0.044-2.076-0.012-3.1c-0.084-1.542-1.269-2.688-2.789-2.779
		c-1.463-0.087-2.832,0.923-3.017,2.421C242.238-109.924,242.35-108.767,242.35-107.593z"/>
	<path fill-rule="evenodd" clip-rule="evenodd" fill="#5DAF78" d="M218.012-121.297c0-1.592,0-3.163,0-4.733
		c0-0.258-0.002-0.516,0-0.773c0.008-0.471,0.162-0.634,0.637-0.635c1.688-0.004,3.377-0.001,5.065-0.002c0.688,0,1.376,0,2.035,0
		c-0.045-0.252-0.151-0.487-0.104-0.685c0.047-0.194,0.239-0.363,0.39-0.521c0.375-0.389,0.758-0.768,1.143-1.146
		c0.326-0.32,0.586-0.372,0.927-0.078c0.471,0.407,0.902,0.527,1.485,0.188c0.288-0.168,0.463-0.281,0.506-0.637
		c0.119-1.019,0.098-1.073,1.217-1.052c0.504,0.009,1.008,0.009,1.513-0.001c0.359-0.006,0.58,0.144,0.644,0.506
		c0,0.012,0.009,0.023,0.009,0.034c-0.014,0.78,0.398,1.213,1.134,1.365c0.128,0.025,0.29,0.021,0.403-0.035
		c0.199-0.096,0.37-0.245,0.555-0.37c0.381-0.259,0.604-0.243,0.934,0.07c0.406,0.39,0.812,0.78,1.217,1.172
		c0.495,0.476,0.511,0.556,0.222,1.19c0.155,0,0.29,0,0.426,0c2.191,0,4.386-0.001,6.578,0c0.601,0,0.736,0.141,0.736,0.751
		c0,1.77,0,3.541,0,5.323c0.075,0.025,0.138,0.054,0.202,0.067c1.561,0.326,2.551,1.765,2.327,3.382
		c-0.208,1.5-1.628,2.627-3.188,2.531c-1.498-0.093-2.76-1.427-2.784-2.94c-0.019-1.272,0.749-2.399,1.97-2.836
		c0.272-0.098,0.343-0.226,0.34-0.501c-0.015-1.454-0.006-2.908-0.007-4.362c0-0.114,0-0.229,0-0.365c-2.331,0-4.625,0-6.918,0
		c0.053,0.602,0.181,0.748,0.755,0.86c0.97,0.192,0.97,0.192,0.97,1.174c0,0.539-0.001,1.078,0,1.618
		c0.001,0.328-0.149,0.59-0.475,0.584c-0.787-0.015-1.259,0.329-1.417,1.092c-0.027,0.14-0.027,0.313,0.032,0.434
		c0.105,0.219,0.27,0.409,0.409,0.612c0.189,0.281,0.181,0.554-0.059,0.798c-0.495,0.5-0.991,0.999-1.494,1.49
		c-0.221,0.216-0.478,0.292-0.764,0.106c-0.294-0.189-0.576-0.506-0.885-0.532c-0.309-0.024-0.645,0.23-0.958,0.386
		c-0.096,0.047-0.188,0.167-0.218,0.271c-0.072,0.258-0.109,0.526-0.159,0.791c-0.06,0.32-0.243,0.5-0.575,0.502
		c-0.718,0.002-1.433,0.002-2.147,0c-0.331,0-0.586-0.173-0.566-0.493c0.051-0.867-0.445-1.24-1.176-1.438
		c-0.092-0.025-0.223-0.002-0.305,0.049c-0.217,0.138-0.413,0.307-0.623,0.458c-0.314,0.227-0.584,0.219-0.847-0.048
		c-0.478-0.486-0.95-0.973-1.416-1.47c-0.276-0.294-0.28-0.529-0.05-0.847c0.206-0.284,0.545-0.552,0.578-0.855
		c0.035-0.303-0.225-0.646-0.375-0.961c-0.041-0.085-0.147-0.171-0.238-0.192c-0.273-0.063-0.555-0.094-0.832-0.138
		c-0.326-0.051-0.502-0.24-0.502-0.571c-0.004-0.716,0-1.43-0.002-2.146c0-0.316,0.162-0.503,0.463-0.575
		c0.148-0.035,0.299-0.059,0.448-0.087c0.677-0.126,0.677-0.126,0.831-0.872c-2.295,0-4.586,0-6.918,0
		c-0.006,0.127-0.016,0.25-0.016,0.373c-0.001,1.454,0.009,2.908-0.009,4.363c-0.003,0.283,0.083,0.398,0.347,0.495
		c1.242,0.451,2.031,1.643,1.961,2.913c-0.071,1.298-0.981,2.423-2.236,2.767c-1.23,0.335-2.563-0.167-3.262-1.232
		c-1.098-1.669-0.189-3.978,1.768-4.496C217.773-121.239,217.885-121.265,218.012-121.297z M235.956-128.799
		c-0.229,0.151-0.45,0.282-0.653,0.436c-0.291,0.219-0.561,0.204-0.881,0.042c-0.395-0.197-0.808-0.378-1.233-0.492
		c-0.398-0.107-0.612-0.313-0.653-0.714c-0.011-0.117-0.047-0.231-0.047-0.347c0.001-0.351-0.166-0.436-0.502-0.423
		c-0.792,0.031-0.811,0.01-0.902,0.779c-0.049,0.414-0.25,0.623-0.65,0.704c-0.249,0.05-0.517,0.116-0.725,0.254
		c-0.661,0.438-1.268,0.462-1.859-0.117c-0.058-0.057-0.233-0.072-0.301-0.026c-0.295,0.204-0.572,0.435-0.858,0.66
		c0.165,0.249,0.298,0.471,0.452,0.677c0.197,0.265,0.199,0.515,0.058,0.817c-0.213,0.453-0.387,0.926-0.553,1.399
		c-0.093,0.27-0.233,0.444-0.522,0.501c-0.304,0.059-0.738,0.049-0.867,0.238c-0.154,0.226-0.046,0.631-0.049,0.96
		c0,0.058,0.009,0.115,0.018,0.21c0.273,0.044,0.549,0.089,0.822,0.133c0.305,0.048,0.494,0.204,0.598,0.513
		c0.162,0.486,0.355,0.964,0.566,1.431c0.126,0.276,0.127,0.511-0.049,0.756c-0.161,0.228-0.311,0.464-0.509,0.766
		c0.163,0.136,0.339,0.257,0.485,0.408c0.152,0.159,0.279,0.345,0.408,0.508c0.306-0.202,0.527-0.334,0.733-0.489
		c0.276-0.207,0.535-0.208,0.848-0.055c0.43,0.208,0.878,0.385,1.334,0.526c0.354,0.11,0.522,0.313,0.571,0.666
		c0.125,0.9,0.129,0.893,1.033,0.897c0.245,0,0.404-0.033,0.405-0.329c0-0.185,0.066-0.369,0.093-0.555
		c0.044-0.322,0.238-0.469,0.54-0.564c0.454-0.145,0.905-0.31,1.334-0.52c0.312-0.153,0.569-0.166,0.848,0.037
		c0.216,0.157,0.443,0.296,0.646,0.431c0.329-0.319,0.631-0.61,0.945-0.916c-0.158-0.24-0.314-0.487-0.48-0.728
		c-0.164-0.238-0.153-0.46-0.03-0.723c0.214-0.453,0.403-0.919,0.569-1.392c0.097-0.273,0.242-0.441,0.531-0.485
		c0.288-0.045,0.573-0.102,0.877-0.156c0-0.418,0-0.823,0-1.253c-0.282-0.047-0.559-0.093-0.836-0.138
		c-0.276-0.044-0.461-0.184-0.562-0.459c-0.184-0.504-0.375-1.006-0.592-1.498c-0.114-0.265-0.113-0.491,0.051-0.726
		c0.164-0.237,0.32-0.481,0.438-0.658C236.532-128.16,236.251-128.472,235.956-128.799z M218.387-116.425
		c1.045,0.002,1.903-0.854,1.904-1.897c0.002-1.042-0.854-1.91-1.891-1.917c-1.064-0.008-1.928,0.852-1.924,1.916
		C216.481-117.286,217.346-116.427,218.387-116.425z M245.256-116.425c1.039-0.004,1.9-0.871,1.9-1.908
		c0.001-1.065-0.863-1.918-1.931-1.907c-1.036,0.011-1.89,0.885-1.883,1.926C243.349-117.27,244.208-116.421,245.256-116.425z"/>
	<path fill-rule="evenodd" clip-rule="evenodd" fill="#5DAF78" d="M231.8-97.524c-2.696-0.001-5.392,0-8.088-0.001
		c-0.69,0-1.115-0.402-1.055-1.017c0.019-0.177,0.095-0.366,0.194-0.515c2.727-4.04,5.459-8.074,8.195-12.108
		c0.417-0.613,1.121-0.617,1.538-0.003c2.748,4.051,5.492,8.107,8.239,12.163c0.222,0.325,0.213,0.663,0.043,0.996
		c-0.177,0.351-0.495,0.481-0.873,0.483c-1.536,0-3.072,0-4.608,0.001C234.191-97.524,232.997-97.524,231.8-97.524z M232.369-102.3
		c0-0.842,0-1.687,0-2.53c-0.002-0.547-0.156-0.771-0.543-0.774c-0.389-0.006-0.559,0.222-0.561,0.756
		c-0.002,0.622-0.002,1.242-0.002,1.863c0,1.104-0.004,2.204,0.004,3.308c0.004,0.439,0.277,0.688,0.662,0.608
		c0.337-0.07,0.439-0.314,0.439-0.628C232.369-100.563,232.369-101.43,232.369-102.3z M232.365-107.783
		c0-0.199,0.015-0.398-0.004-0.596c-0.029-0.324-0.255-0.523-0.562-0.505c-0.313,0.016-0.508,0.188-0.526,0.501
		c-0.021,0.385-0.02,0.772-0.002,1.155c0.015,0.333,0.227,0.517,0.544,0.517c0.32,0.002,0.519-0.177,0.546-0.512
		C232.378-107.409,232.365-107.597,232.365-107.783z"/>
	<path fill-rule="evenodd" clip-rule="evenodd" fill="#5DAF78" d="M221.332-107.592c-1.981,0-3.92,0-5.896,0
		c0-0.282-0.005-0.549,0-0.814c0.014-0.866-0.035-1.738,0.064-2.594c0.172-1.485,1.566-2.57,3.053-2.47
		c1.554,0.104,2.76,1.341,2.778,2.865C221.342-109.611,221.332-108.617,221.332-107.592z"/>
	<path fill-rule="evenodd" clip-rule="evenodd" fill="#5DAF78" d="M242.35-107.593c0-1.174-0.111-2.331,0.027-3.458
		c0.185-1.498,1.554-2.508,3.017-2.421c1.521,0.091,2.705,1.237,2.789,2.779c0.056,1.023,0.012,2.053,0.012,3.1
		C246.225-107.593,244.286-107.593,242.35-107.593z"/>
	<path fill-rule="evenodd" clip-rule="evenodd" fill="#5DAF78" d="M235.956-128.799c0.295,0.327,0.576,0.639,0.889,0.987
		c-0.117,0.177-0.273,0.421-0.438,0.658c-0.164,0.234-0.165,0.461-0.051,0.726c0.217,0.492,0.408,0.993,0.592,1.498
		c0.101,0.276,0.285,0.415,0.562,0.459c0.277,0.045,0.554,0.091,0.836,0.138c0,0.431,0,0.835,0,1.253
		c-0.304,0.054-0.589,0.11-0.877,0.156c-0.289,0.044-0.435,0.212-0.531,0.485c-0.166,0.473-0.355,0.939-0.569,1.392
		c-0.123,0.263-0.134,0.485,0.03,0.723c0.166,0.24,0.322,0.488,0.48,0.728c-0.314,0.306-0.616,0.597-0.945,0.916
		c-0.202-0.135-0.43-0.273-0.646-0.431c-0.278-0.203-0.536-0.19-0.848-0.037c-0.429,0.21-0.88,0.375-1.334,0.52
		c-0.302,0.096-0.496,0.243-0.54,0.564c-0.026,0.186-0.093,0.37-0.093,0.555c-0.001,0.296-0.16,0.329-0.405,0.329
		c-0.904-0.004-0.908,0.003-1.033-0.897c-0.049-0.354-0.218-0.556-0.571-0.666c-0.456-0.141-0.904-0.318-1.334-0.526
		c-0.313-0.153-0.571-0.152-0.848,0.055c-0.206,0.155-0.428,0.288-0.733,0.489c-0.129-0.163-0.256-0.349-0.408-0.508
		c-0.146-0.15-0.322-0.272-0.485-0.408c0.198-0.302,0.348-0.539,0.509-0.766c0.176-0.245,0.175-0.48,0.049-0.756
		c-0.211-0.467-0.404-0.945-0.566-1.431c-0.104-0.309-0.293-0.465-0.598-0.513c-0.273-0.044-0.549-0.089-0.822-0.133
		c-0.009-0.096-0.018-0.152-0.018-0.21c0.003-0.329-0.105-0.734,0.049-0.96c0.129-0.189,0.563-0.179,0.867-0.238
		c0.289-0.057,0.43-0.231,0.522-0.501c0.166-0.473,0.34-0.946,0.553-1.399c0.142-0.302,0.14-0.552-0.058-0.817
		c-0.154-0.206-0.287-0.428-0.452-0.677c0.286-0.225,0.563-0.457,0.858-0.66c0.067-0.046,0.243-0.031,0.301,0.026
		c0.592,0.579,1.198,0.555,1.859,0.117c0.208-0.138,0.476-0.205,0.725-0.254c0.4-0.081,0.602-0.29,0.65-0.704
		c0.092-0.769,0.11-0.748,0.902-0.779c0.336-0.012,0.503,0.072,0.502,0.423c0,0.116,0.036,0.23,0.047,0.347
		c0.041,0.402,0.255,0.607,0.653,0.714c0.426,0.114,0.839,0.295,1.233,0.492c0.32,0.161,0.59,0.177,0.881-0.042
		C235.506-128.518,235.728-128.648,235.956-128.799z M231.818-127.44c-2.037,0.004-3.662,1.632-3.66,3.668
		c0.001,2,1.658,3.652,3.656,3.644c2.034-0.008,3.662-1.644,3.661-3.675C235.475-125.808,233.829-127.445,231.818-127.44z"/>
	<path fill-rule="evenodd" clip-rule="evenodd" fill="#5DAF78" d="M218.387-116.425c-1.041-0.002-1.905-0.861-1.91-1.899
		c-0.004-1.063,0.859-1.923,1.924-1.916c1.036,0.008,1.893,0.875,1.891,1.917C220.29-117.279,219.432-116.423,218.387-116.425z"/>
	<path fill-rule="evenodd" clip-rule="evenodd" fill="#5DAF78" d="M245.256-116.425c-1.048,0.004-1.907-0.845-1.913-1.889
		c-0.007-1.041,0.847-1.915,1.883-1.926c1.067-0.011,1.932,0.842,1.931,1.907C247.156-117.295,246.295-116.429,245.256-116.425z"/>
</g>
<g>
	<path fill-rule="evenodd" clip-rule="evenodd" fill="#D7B990" d="M13.509,16.128c0.317,0.196,0.62,0.383,0.941,0.583
		c-2.482,3.38-3.333,7.124-2.446,11.209c0.669,3.082,2.289,5.616,4.732,7.612c4.831,3.947,11.689,4.034,16.742,0.22
		c4.945-3.733,6.67-10.469,4.14-16.23c-2.445-5.569-8.776-9.38-15.794-7.656c-0.058-0.37-0.115-0.738-0.172-1.101
		c4.763-1.387,12.325-0.032,16.361,6.964c3.665,6.354,1.872,14.667-4.037,19.014c-6.069,4.464-14.425,3.704-19.516-1.768
		C9.228,29.355,9.495,21.217,13.509,16.128z"/>
	<path fill-rule="evenodd" clip-rule="evenodd" fill="#D7B990" d="M34.935,32.42c-0.358-0.221-0.701-0.433-1.069-0.659
		c2.068-2.797,2.815-5.882,2.087-9.266c-0.54-2.511-1.859-4.571-3.841-6.205c-3.785-3.122-9.388-3.297-13.368-0.42
		c-4.156,3.003-5.754,8.308-3.914,13.018c0.669,1.713,1.705,3.175,3.097,4.378c1.392,1.203,2.987,2.014,4.781,2.421
		s3.58,0.351,5.385-0.148c0.071,0.426,0.138,0.82,0.204,1.21c-4.346,1.32-10.826-0.24-13.997-6.183
		c-2.973-5.57-1.146-12.493,4.233-16.039c5.24-3.454,12.308-2.31,16.288,2.617C38.721,21.972,38.028,28.688,34.935,32.42z"/>
	<path fill-rule="evenodd" clip-rule="evenodd" fill="#D7B990" d="M20.571,29.173c0.012-0.367,0.013-0.735,0.038-1.101
		c0.014-0.21-0.06-0.35-0.214-0.488c-0.791-0.712-1.392-1.549-1.62-2.61c-0.469-2.182,1.295-4.367,3.526-4.371
		c0.636-0.001,1.27,0.012,1.875,0.252c1.936,0.766,2.838,2.931,2.021,4.88c-0.361,0.862-0.947,1.55-1.695,2.107
		c-0.106,0.079-0.193,0.25-0.201,0.382c-0.04,0.694-0.049,1.39-0.072,2.084c-0.027,0.848-0.407,1.199-1.196,1.469
		c-0.519,0.176-0.924,0.264-1.351-0.125c-0.072-0.067-0.207-0.06-0.308-0.1c-0.524-0.205-0.835-0.66-0.835-1.219
		c0-0.198,0.01-0.396,0.016-0.596C20.559,29.55,20.565,29.361,20.571,29.173z M23.275,28.57c0.005-0.159,0.021-0.287,0.011-0.412
		c-0.055-0.644,0.229-1.091,0.754-1.443c0.519-0.35,0.9-0.838,1.164-1.407c0.604-1.307,0.029-2.841-1.28-3.433
		c-0.502-0.227-1.037-0.256-1.574-0.241c-1.592,0.045-2.756,1.409-2.511,2.963c0.139,0.882,0.64,1.571,1.292,2.15
		c0.382,0.338,0.607,0.724,0.547,1.25c-0.02,0.171-0.013,0.347-0.018,0.524C22.215,28.538,22.719,28.553,23.275,28.57z
		 M21.684,29.718c-0.006,0.192-0.008,0.368-0.017,0.543c-0.01,0.198,0.081,0.293,0.279,0.294c0.198,0.002,0.396,0.014,0.593,0.018
		c0.736,0.015,0.756,0.155,0.75-0.74c0-0.018-0.015-0.035-0.03-0.066C22.749,29.75,22.23,29.734,21.684,29.718z"/>
	<path fill-rule="evenodd" clip-rule="evenodd" fill="#D7B990" d="M28.558,21.47c-0.023,0.234-0.041,0.431-0.063,0.627
		c-0.029,0.251-0.205,0.412-0.459,0.405c-0.264-0.006-0.42-0.167-0.412-0.415c0.019-0.574,0.058-1.149,0.114-1.721
		c0.023-0.247,0.201-0.388,0.453-0.386c0.516,0.007,1.032,0.021,1.548,0.046c0.239,0.011,0.463,0.293,0.457,0.54
		c-0.005,0.241-0.194,0.395-0.496,0.396c-0.135,0-0.271-0.008-0.467-0.014c0.099,0.124,0.156,0.198,0.216,0.271
		c1.12,1.35,1.027,3.274-0.224,4.508c-0.312,0.307-0.64,0.595-0.949,0.902c-0.784,0.778-0.952,1.976-0.425,2.935
		c0.098,0.176,0.179,0.248,0.411,0.186c0.778-0.21,1.545,0.266,1.742,1.041c0.2,0.787-0.252,1.542-1.04,1.739
		c-0.777,0.194-1.562-0.237-1.728-1.004c-0.062-0.285,0.025-0.601,0.036-0.902c0.003-0.115,0.016-0.256-0.041-0.344
		c-0.904-1.427-0.711-3.142,0.497-4.322c0.326-0.319,0.659-0.632,0.977-0.959C29.685,23.991,29.632,22.378,28.558,21.47z
		 M28.1,31.072c-0.032,0.311,0.199,0.587,0.516,0.613c0.289,0.024,0.571-0.209,0.604-0.5c0.033-0.298-0.213-0.586-0.521-0.611
		C28.397,30.551,28.132,30.771,28.1,31.072z"/>
	<path fill-rule="evenodd" clip-rule="evenodd" fill="#D7B990" d="M31,28.364c-0.249,0.209-0.428,0.366-0.614,0.513
		c-0.225,0.179-0.473,0.167-0.637-0.02c-0.151-0.171-0.126-0.403,0.083-0.607c0.154-0.152,0.323-0.292,0.509-0.458
		c-0.176-0.175-0.339-0.341-0.507-0.505c-0.192-0.188-0.177-0.39-0.021-0.583c0.143-0.179,0.403-0.202,0.582-0.028
		c0.177,0.171,0.313,0.384,0.542,0.672c0.211-0.247,0.347-0.432,0.509-0.589c0.204-0.196,0.459-0.188,0.634-0.008
		c0.169,0.174,0.159,0.484-0.03,0.671c-0.141,0.14-0.293,0.266-0.454,0.41c0.157,0.156,0.306,0.301,0.448,0.452
		c0.201,0.213,0.208,0.483,0.022,0.663c-0.17,0.165-0.433,0.148-0.633-0.061C31.283,28.729,31.155,28.553,31,28.364z"/>
	<path fill-rule="evenodd" clip-rule="evenodd" fill="#D7B990" d="M25.631,18.337c0.201-0.212,0.35-0.385,0.516-0.54
		c0.229-0.216,0.497-0.211,0.68-0.001c0.168,0.193,0.138,0.41-0.092,0.623c-0.152,0.141-0.31,0.278-0.479,0.43
		c0.167,0.17,0.327,0.331,0.485,0.494c0.188,0.195,0.2,0.427,0.035,0.605c-0.161,0.172-0.423,0.186-0.611-0.001
		c-0.167-0.166-0.302-0.364-0.465-0.565c-0.249,0.207-0.436,0.367-0.628,0.52c-0.22,0.175-0.473,0.162-0.637-0.027
		c-0.166-0.19-0.131-0.419,0.099-0.619c0.15-0.13,0.304-0.255,0.495-0.415c-0.165-0.163-0.325-0.317-0.481-0.476
		c-0.206-0.208-0.218-0.443-0.037-0.626c0.167-0.169,0.44-0.158,0.636,0.042C25.299,17.935,25.433,18.108,25.631,18.337z"/>
	<path fill-rule="evenodd" clip-rule="evenodd" fill="#D7B990" d="M21.684,29.718c0.546,0.017,1.064,0.032,1.576,0.048
		c0.015,0.031,0.03,0.049,0.03,0.066c0.005,0.896-0.015,0.755-0.75,0.74c-0.197-0.004-0.395-0.016-0.593-0.018
		c-0.199-0.001-0.289-0.096-0.279-0.294C21.676,30.086,21.678,29.91,21.684,29.718z"/>
	<path fill-rule="evenodd" clip-rule="evenodd" fill="#D7B990" d="M28.1,31.072c0.032-0.302,0.298-0.521,0.6-0.498
		c0.308,0.025,0.554,0.313,0.521,0.611c-0.033,0.291-0.315,0.524-0.604,0.5C28.299,31.659,28.067,31.383,28.1,31.072z"/>
	<path fill-rule="evenodd" clip-rule="evenodd" fill="#D7B990" d="M22.643,22.506c0.146,0.126,0.261,0.199,0.337,0.301
		c0.081,0.109,0.136,0.241,0.183,0.371c0.066,0.184,0.191,0.257,0.381,0.266c0.137,0.007,0.274,0.036,0.41,0.065
		c0.294,0.063,0.411,0.352,0.175,0.514c-0.443,0.306-0.606,0.644-0.45,1.185c0.089,0.308-0.188,0.457-0.49,0.31
		c-0.018-0.009-0.038-0.015-0.053-0.026c-0.365-0.313-0.719-0.315-1.104-0.013c-0.09,0.07-0.322,0.054-0.425-0.017
		c-0.089-0.059-0.157-0.28-0.117-0.382c0.189-0.478,0.061-0.818-0.346-1.106c-0.088-0.062-0.157-0.257-0.124-0.353
		c0.032-0.092,0.207-0.134,0.32-0.197c0.016-0.009,0.039-0.008,0.058-0.006c0.451,0.039,0.734-0.159,0.901-0.581
		C22.347,22.715,22.504,22.635,22.643,22.506z"/>
</g>
</svg>
